<?xml version="1.0" encoding="utf-8"?>
<!-- Generator: Adobe Illustrator 24.0.2, SVG Export Plug-In . SVG Version: 6.00 Build 0)  -->
<svg version="1.1" id="Capa_1" xmlns="http://www.w3.org/2000/svg" xmlns:xlink="http://www.w3.org/1999/xlink" x="0px" y="0px"
	 viewBox="0 0 595.28 841.89" style="enable-background:new 0 0 595.28 841.89;" xml:space="preserve">
<style type="text/css">
	.st0{fill:#0086BE;}
	.st1{fill:#F9C38B;}
	.st2{fill:#EDD7EA;}
	.st3{fill:none;stroke:#3D3969;stroke-width:3;stroke-miterlimit:10;}
	.st4{fill:#3D3969;}
	.st5{fill:#EDD7EA;stroke:#3D3969;stroke-width:3;stroke-miterlimit:10;}
	.st6{fill:none;}
</style>
<path class="st0" d="M118.01,275.71c-2.11-1-4.27-1.92-6.75-3.69c-2.61-1.86-5.7-4.73-8.49-9.43c-1.9,5.49-4.11,14.12-3.74,24.78
	c0.16,4.62,0.77,8.82,1.61,12.54c-4.08,6.27-8.14,12.95-12.1,20.05c-6.26,11.21-11.52,22.11-15.94,32.48
	c-2.01,16.27-3.81,33.02-5.36,50.25c-1.88,20.91-3.27,41.2-4.25,60.82c5.92,7.98,12.12,18.04,17.2,30.27
	c2.34,5.62,4.16,11.03,5.59,16.1c-0.34,1.57-0.67,3.17-0.99,4.79c-0.98,5-1.78,9.87-2.41,14.58c4.35,13.75,8.2,24.8,11.18,33.05
	c4.52,12.49,9.27,24.65,10.45,42.2c0.12,1.83,0.2,3.58,0.23,5.22c-4.06-1.12-8.32-1.06-12.25,0.31
	c-8.88,3.1-12.16,11.52-12.85,13.47c-1.31,3.7-1.59,7.64-0.95,11.51c6.57,3.2,16.67,6.72,29.15,6.25c7.89-0.3,14.57-2.1,19.73-4.11
	c-1.83-28.11,0.9-48.58,4.09-62.74c1.34-5.97,4.14-16.9,4.6-32.17c0.17-5.52,0-10.68-0.37-15.41c6.38,2.54,14.2,4.97,23.27,6.42
	c-3.1,4.64-6.15,9.93-8.91,15.88c-5.21,11.24-7.94,21.71-9.38,30.25c1.21,5.59,3.25,11.9,6.66,18.43
	c4.41,8.44,9.75,14.6,14.05,18.77c6.75-1.21,14.95-4.19,21.15-11.25c2.29-2.61,7.87-8.96,7.21-17.23
	c-0.61-7.64-6.36-14.79-15.17-19.04c3.63-5.05,8.01-10.33,13.29-15.53c8.49-8.37,17-14.26,24.03-18.35c0.18-2.08,0.3-4.28,0.33-6.58
	c16.81-7.26,16.81-14.68,36.44-21.66c2.85-1.02,13.43-4.62,27.89-5.64c3.95-0.28,7.69-0.33,11.19-0.22
	c6.75,8.84,13.2,16.12,18.79,21.95c10.61,11.07,18.4,19.09,28.57,25.29c-0.53,7.2-1.88,15.51-4.75,24.43
	c-4.04,12.56-9.87,22.49-15.23,29.83c-4.54-1.82-10.34-2.97-16.62-1.31c-1.99,0.52-8.36,2.31-12.85,8.3
	c-3.52,4.7-4.93,10.72-4.23,16.91c6.04,2.49,15.34,5.4,26.95,5.65c8.61,0.19,16-1.14,21.71-2.73c8.98-13.46,18.03-27.75,27.02-42.87
	c5.3-8.91,10.33-17.7,15.11-26.34c10.97,0.96,20.79-0.09,28.14-1.42c6.09,3.58,12.87,8.5,19.42,15.23
	c8.22,8.44,13.66,17.23,17.25,24.72c-6.26-0.92-12.77,0.6-17.88,4.58c-6.55,5.11-9.67,13.38-8.77,21.45
	c6.84,3.52,21.12,9.41,39.48,7.53c8.46-0.87,15.69-3.17,21.51-5.78c0.73-1.75,1.43-3.59,2.09-5.5c0.56-1.62,1.06-3.22,1.51-4.8
	c-13.25-35.85-22.66-61.78-25.96-72.71c-0.6-1.98-1.91-6.51-5.85-10.45c-5.24-5.24-11.25-5.54-19.22-7.94
	c0,0-12.03-3.61-22.14-10.86c-2.5-1.79-18.01-13.25-22.14-32.59c-1.85-8.68-0.42-12.69,0-23.4c0.4-10.16-0.32-24.25-5.26-41.62
	c13.57,0.13,31.99-2.21,50.5-12.57c8.67-4.86,32.54-18.39,41.15-45.75c0.64-2.03,8.05-25.74-0.14-44.19
	c-3.35-7.54-8.54-14.95-8.54-14.95c-5.31-7.58-7.21-8.31-10.34-13c-6.41-9.61-5.1-21.24-4.71-24.62
	c1.75-15.56,11.87-25.02,15.37-28.29c3.21-3,14.17-12.47,31.13-13.79c17.13-1.33,29.97,6.46,35.95,11.02
	c-1.04,0.46-7.29,3.35-8.95,9.77c-1.84,7.13,3.41,13.04,5.33,15.2c5.92,6.67,15.63,9.48,24.29,7.52c1.64-0.37,9.95-2.43,14.57-9.4
	c8.71-13.14-1.2-36.22-13.63-48.88c-20.77-21.15-52.53-17.15-60.48-15.82c-29.99,5-54.01,27.41-62.99,53.27
	c-1.99,5.73-6.56,18.91-3.45,34.78c4.71,24.03,21.74,27.16,26.01,47.32c5.99,28.28-20.75,54.34-21.94,55.47
	c-28.79,27.31-68.3,17.54-70.89,16.86c-12.73-2.26-32.67-4.69-56.97-2.75c-20.02,1.59-28.97,5.03-48.88,7.21
	c-13.32,1.45-32.56,2.45-56.65-0.22c-3.83-8.3-8.21-16.94-13.23-25.79c-3.64-6.41-7.34-12.45-11.04-18.11
	c2.29-5.5,6.18-9.84,11.15-12.08c7.53-3.38,15.01-0.79,15.46-0.63c4.33,1.57,7.28,4.33,9.16,6.74c2.63-0.86,5.36-1.84,8.18-2.98
	c2.21-0.9,4.34-1.83,6.37-2.78c1.82-5.88,3.51-12.35,4.91-19.36c1.85-9.28,2.88-17.94,3.38-25.74c-2.12-1.36-4.5-2.7-7.14-3.92
	c-10.13-4.71-15.68-3.82-22.35-8.57c-2.57-1.83-5.58-4.69-8.23-9.41c-6.05-1.41-12.8-2.6-20.18-3.33
	c-9.74-0.96-18.58-0.92-26.25-0.39c-3.09-1.85-6.02-2.63-9.63-5.19c-2.61-1.86-5.7-4.73-8.49-9.43c-1.35,3.91-2.86,9.4-3.48,16.08
	C118.28,275.84,118.15,275.77,118.01,275.71"/>
<path class="st1" d="M134.09,261.03c0.01-0.03,0.01-0.06,0.02-0.09c-0.03,0-0.07,0-0.1,0L134.09,261.03z"/>
<path class="st1" d="M163.15,483.81c0.48-0.9,0.7-2.03,1.98-1.69c2.14,0.57,3.02-0.75,3.53-2.32c0.62-1.89,1.07-3.86,1.35-5.83
	c0.63-4.36,0.68-8.85,1.74-13.09c2.05-8.12,0.04-15.36-3.76-22.39c-0.37-0.68-0.9-1.29-1.42-1.87c-0.42-0.46-1.95-0.05-2.04,0.56
	c-0.34,2.14-0.62,4.28-0.96,6.73c-1.7-0.58-2.04-1.57-2.46-2.44c-0.44-0.89-0.68-1.88-1.09-2.79c-0.44-0.96-1.19-1.63-2.31-1.64
	c-1.22-0.01-1.65,0.85-1.93,1.89c-0.46,1.74-0.93,3.47-1.5,5.17c-0.53,1.57-1.06,1.66-2.6,0.55c-0.48-0.35-0.85-0.86-1.36-1.15
	c-1.18-0.69-2.48-0.2-2.78,1.17c-0.56,2.54-0.96,5.11-1.44,7.67c-0.11,0.57-0.17,1.17-0.85,1.42c-0.73,0.28-1.1-0.18-1.44-0.67
	c-1.48-2.13-2.87-4.33-4.43-6.39c-1.29-1.71-3.93-1.51-5.14,0.29c-0.33,0.49-0.71,1.02-0.83,1.58c-0.45,2.16-0.79,4.33-2.6,5.92
	c-0.38,0.34-0.63,1.13-0.55,1.65c0.46,2.95-1.76,5.89,0.05,8.84c0.47,0.76-0.16,1.52-0.55,2.21c-0.79,1.38-0.28,2.26,1.08,2.78
	c1.97,0.74,3.55,1.69,3.61,4.18c0.03,1.24,1.19,1.68,2.2,1.16c1.73-0.89,2.58-0.11,3.27,1.31c1.3,2.71,2.59,5.42,3.91,8.12
	c0.58,1.19,1.73,2.21,2.84,1.44c1.96-1.35,3.6-0.36,5.48-0.2c1.93,0.16,3.84-0.32,5.87,0.33
	C160.95,487.23,161.54,486.82,163.15,483.81z"/>
<path class="st1" d="M304.02,469.95c1.96,0.74,3.59,1.66,3.64,4.17c0.03,1.26,1.17,1.72,2.18,1.2c1.71-0.87,2.59-0.19,3.29,1.27
	c1.13,2.35,2.23,4.7,3.4,7.03c1.44,2.86,1.47,2.85,4.94,1.78c0.36-0.11,0.89-0.49,1.05-0.37c2.64,2.13,5.82,0.05,8.71,1.23
	c2.84,1.16,3.51,0.56,5.12-2.42c0.48-0.89,0.65-2.07,1.95-1.72c2.12,0.56,2.97-0.72,3.57-2.28c0.79-2.06,1.24-4.2,1.46-6.42
	c0.43-4.38,0.77-8.81,1.74-13.09c1.09-4.84,0.88-9.49-0.51-14.14c-0.97-3.26-2.35-6.36-4.3-9.16c-0.26-0.37-1.04-0.49-1.59-0.52
	c-0.72-0.04-1.06,0.61-1.14,1.18c-0.25,1.96-0.4,3.94-0.63,6.32c-2.19-0.93-2.47-2.37-3.05-3.61c-0.42-0.9-0.75-1.86-1.32-2.65
	c-0.47-0.65-1.35-0.96-2.14-0.6c-0.49,0.22-1.03,0.7-1.2,1.18c-0.7,2.07-1.22,4.22-1.92,6.29c-0.32,0.93-1.13,1.03-1.9,0.46
	c-0.48-0.36-0.81-0.91-1.3-1.24c-1.75-1.18-2.98-0.74-3.46,1.38c-0.53,2.34-0.84,4.73-1.31,7.08c-0.1,0.52-0.42,1.11-0.83,1.41
	c-0.63,0.48-1.09-0.11-1.43-0.59c-1.48-2.13-2.87-4.32-4.43-6.39c-1.3-1.73-3.92-1.56-5.14,0.23c-0.34,0.49-0.71,1.02-0.84,1.58
	c-0.47,2.15-0.76,4.34-2.6,5.92c-0.39,0.33-0.65,1.13-0.56,1.64c0.47,2.95-1.76,5.89,0.05,8.84c0.47,0.77-0.13,1.52-0.53,2.21
	C302.19,468.51,302.63,469.43,304.02,469.95z"/>
<path class="st1" d="M272.24,501.7c0.07-1.81,0.02-3.37-0.06-4.58c-0.24-3.8-0.76-4.2-1.07-7.11c-0.13-1.27-0.56-2.27-1.44-3.18
	c-0.98-1-1.85-2.1-2.78-3.15c-2.08-2.32-3.75-2.24-5.82,0.18c-1.12,1.3-1.72,3.26-3.91,3.3c-1.27-1.57-0.6-3.53-1.25-5.2
	c-2.1-5.33-3.31-5.59-7.16-1.55c-1.24,1.31-2.7,2.51-2.98,4.4c-0.91,6.03-5.01,11.39-3.79,17.87c-0.44,0.86-1.16,1.76-1.44,2.59
	c-0.03,0.09-0.04,0.17-0.03,0.25c0.13,0.89,1.55,1.06,2.35,2.28c0.16,0.24,0.35,0.62,0.44,1.18"/>
<path class="st1" d="M84.75,506.42c0.36,0.23,0.88,0.57,1.52,0.95c0.88,0.53,1.33,0.77,1.75,0.97c1.92,0.89,3.12,0.69,4.25-0.82
	c2.96-3.93,5.01-8.26,4.54-13.32c-0.31-3.37-0.95-6.72-1.49-10.07c-0.09-0.57-0.37-1.17-0.73-1.61c-1.27-1.54-2.57-3.07-3.95-4.52
	c-1.3-1.38-3.47-1.3-4.73,0.15c-0.92,1.05-1.68,2.25-2.62,3.28c-0.35,0.39-1.02,0.68-1.54,0.68c-0.66-0.01-0.95-0.72-0.91-1.29
	c0.17-2.77-1.42-4.91-2.5-7.22c-0.19-0.4-0.48-0.7-0.83-0.88c-0.75-0.4-1.66,0.07-2.18,0.32c-1.92,0.95-3.03,2.84-3.54,3.85"/>
<path class="st1" d="M130.95,332.07c0.81,1.54,1.73,1.91,3.43,1.37c0.74-0.24,1.65-1.08,2.13-0.87c2.33,1.04,4.76,0.29,7.11,0.64
	c1.36,0.2,2.57,1.36,4.04,0.78c1.94-0.76,1.06-2.84,1.85-4.15c0.31-0.51,0.64-1.04,1.06-1.44c2.13-2.05,3.19-4.53,3.36-7.48
	c0.18-3.03,2.82-5.36,2.55-8.55c-0.03-0.4,0-0.8,0-0.51c0.03-2.31,0-3.99-0.96-5.34c-2.35-3.3-2.53-7.07-2.67-10.87
	c-0.05-1.21,0.06-2.52-0.92-3.37c-1.31-1.13-1.77-2.59-2.23-4.15c-0.36-1.22-1.21-2.04-2.62-2.07c-0.8-0.02-1.6-0.15-2.4-0.14
	c-2.05,0.03-2.82,0.72-3.21,2.78c-0.52,2.75-1.1,5.49-1.52,8.25c-0.48,3.17-0.89,6.26-3.27,8.8c-1.36,1.46-1.64,3.6-1.94,5.61
	c-0.55,3.78-1.48,7.72-3.57,10.7C128.6,325.75,129.18,328.71,130.95,332.07z"/>
<path class="st1" d="M128.28,533.14c0.39-1.48,0.71-2.99,1.07-4.45c0.69-2.75,1.18-5.49,3.25-7.62c0.87-0.89,1.28-1.97,1.48-3.21
	c0.63-3.96,1.36-7.89,2.06-11.84c0.38-2.13,1.15-2.86,3.11-2.89c0.8-0.01,1.6,0.12,2.41,0.14c1.37,0.03,2.27,0.71,2.71,1.98
	c0.46,1.32,0.63,2.78,1.8,3.73c1.23,1,1.34,2.34,1.37,3.8c0.09,3.82,0.32,7.59,2.67,10.89c0.97,1.36,0.94,3.04,0.98,4.6
	c-0.01,0.56-0.03,1.16-0.08,1.79c-0.04,0.57-0.1,1.11-0.17,1.62c-5.87-1.38-11.09-3.12-15.59-4.91c0.37,4.73,0.53,9.9,0.37,15.41
	c-0.09,2.9-0.26,5.65-0.49,8.23c-3.19,0.84-5.6,0.46-6.91,0.13c-0.99-0.25-2.05-0.23-2.53-1.12c-1.77-3.31-2.61-6.27-0.05-10.03
	C126.96,537.57,127.69,535.39,128.28,533.14z"/>
<path class="st1" d="M326.25,542.59c0.66-1.34,1.03-2.81,1.12-4.43c0.17-3.04,2.82-5.37,2.55-8.57c-0.03-0.4,0-0.8,0-1.21
	c0.03-1.84-0.13-3.67-1.27-5.18c-1.4-1.86-1.81-3.96-1.96-6.2c-0.13-1.99-0.09-4.05-0.61-5.95c-0.57-2.07-2.68-3.41-3.03-5.74
	c-0.2-1.31-1.33-1.91-2.69-1.94c-0.8-0.02-1.6-0.15-2.41-0.14c-1.76,0.03-2.7,0.74-3,2.34c-0.73,3.94-1.47,7.88-2.07,11.84
	c-0.22,1.47-1,2.61-1.55,3.81c-0.86,1.84-1.72,3.37-2.44,4.53"/>
<path class="st1" d="M218.23,496.48c0.29,0.4,0.98,0.64,1.52,0.7c0.92,0.1,1.45-0.64,1.8-1.34c0.26-0.52,0.34-1.16,0.35-1.75
	c0.04-2.18,0.02-4.36,0.02-7.33c2.74,2.09,2.1,3.84,1.87,5.61c-0.18,1.38,1.08,2.19,2.36,1.71c3.28-1.23,5.21-3.63,5.93-7
	c1.53-7.13,1-14.38,0.86-21.57c-0.04-2.35-0.46-5.53-3.09-6.83c-3.46-1.71-4.8-4.7-5.58-8.03c-0.44-1.88-1.76-2.56-3.12-3.35
	c-1.82-1.06-3.07-0.8-3.83,1.17c-1.44,3.73-2.75,7.52-3.88,11.35c-2.85,9.65-2.67,19.37-0.24,29.07c0.29,1.15,0.55,3,1.24,3.23
	C216.74,492.86,217.09,494.93,218.23,496.48z"/>
<path class="st1" d="M179.89,417.42c0-0.46,0-0.93,0-1.42c2.7,1.72,2.19,3.78,2.19,5.76c0,1.57,1,2.15,2.37,1.6
	c4.03-1.6,5.81-4.91,6.06-8.91c0.2-3.12,0.77-7.65,0.52-13.46c-0.39-0.04-0.79-0.09-1.19-0.13c-3.7-8.03-7.92-16.37-12.74-24.91
	c-0.4,0.29-0.99,0.77-1.54,1.5c-0.87,1.16-1.1,2.31-1.26,2.73c-2.84,7.35-4.1,15.07-5.05,22.84c-0.15,1.19-0.21,2.43-0.02,3.61
	c0.7,4.36,1.51,8.7,2.31,13.04c0.11,0.57,0.27,1.41,0.66,1.6c2.11,1.05,3.14,2.9,4.19,4.84c0.52,0.96,2.7,0.57,3.06-0.5
	c0.25-0.74,0.4-1.55,0.42-2.34C179.91,421.45,179.89,419.62,179.89,417.42z"/>
<path class="st1" d="M163.29,319.35c0.49-1.43,1.1-2.8,2.71-3.55c2.38,0.9,3.37,3.31,5.2,4.83c1.53,1.27,2.71,2.95,4.07,4.42
	c0.95,1.03,2.03,0.93,3.07-0.11c1.5-1.5,1.93-3.48,2.56-5.37c0.35-1.06,0.99-1.74,2.14-1.72c1.05,0.02,2.14,0.36,2.53,1.34
	c1.99,5.05,3.99,10.23,1.36,15.57c-1.43,2.9-2.99,5.74-4.6,8.55c-1.8,0.22-3.71,0.7-5.63,1.56c-3.55,1.6-6.56,4.28-8.82,7.69
	c-0.4-0.07-0.98-0.2-1.65-0.42c-1.47-0.48-4.17-1.64-5.3-3.69c-0.35-0.64-0.56-1.41-0.57-2.38c-0.01-0.53-0.47-1.11-0.84-1.57
	c-4.07-5.04-3.04-10.9-2.58-16.61c0.16-1.99,1.06-3.89,3.7-3.97c0.91-0.03,1.07-1.01,1.48-1.69
	C162.67,321.36,162.95,320.34,163.29,319.35z"/>
<path class="st1" d="M145.2,560.54c0.16,0.64,0.45,1.57,1.01,2.6c0.64,1.17,0.73,1.32,1.5,2.26c0.71,0.86,0.75,2.25,1.24,3.33
	c0.32,0.71,0.77,1.46,1.37,1.91c4.42,3.29,6.33,2.91,9.6-1.75c0.22-0.32,0.56-0.55,1.41-1.35c0.75,0.94,1.33,1.75,2,2.47
	c1.34,1.41,2.41,1.46,3.35-0.14c2.92-5.01,5.84-10.04,8.49-15.19c1.2-2.33,1.62-5.17,0.82-7.63c-0.67-2.09-1.12-4.23-1.82-6.3
	c-0.52-1.53-1.5-2.3-3.1-2.32c-1.51-0.01-1.96,1.04-2.41,2.24c-0.69,1.84-0.93,3.95-2.79,5.18c-0.73,0.48-1.45,0.79-2.13,0.08
	c-1.53-1.58-2.85-3.42-4.55-4.78c-0.88-0.71-1.72-2.2-3.09-3.76"/>
<path class="st1" d="M352.08,561.75c0.48,0.54,0.98,1.11,1.5,1.67c1.99,2.15,2.68,2.25,4.03,0.02c2.38-3.93,4.35-8.13,6.86-11.98
	c3.91-6.01,2.08-11.83-0.1-17.71c-0.39-1.04-1.47-1.3-2.51-1.32c-1.1-0.03-1.86,0.47-2.28,1.55c-0.73,1.85-1,3.89-2.46,5.43
	c-1.02,1.08-2.09,1.22-3.07,0.19c-2.22-2.31-4.45-4.62-6.64-6.96c-3.07-3.28-3.06-3.19-5.01,0.52c-1.19,2.26-1.21,5.59-5.02,5.91
	c-1.03,0.09-1.61,1.87-1.67,3c-0.27,5.68-1.77,11.56,2.33,16.68c0.71,0.89,1.01,2.15,1.37,3.28c0.31,0.97,0.57,2.05,1.49,2.51
	c1.77,0.89,3.59,1.71,5.48,2.29c0.55,0.17,1.44-0.52,2.09-0.94C350.01,564.89,350.06,562.62,352.08,561.75z"/>
<path class="st1" d="M348.2,411.24c2.49-4.16,4.63-8.52,6.87-12.82c0.17-0.33,0.17-0.75,0.2-1.15c-1.57-0.31-2.58-0.56-2.93-0.66
	c-7.23-1.28-16.78-2.62-28.14-3.18c-0.03,0.21-0.04,0.43-0.03,0.63c0.3,5.27-0.73,10.83,3.15,15.43c0.73,0.86,0.95,2.18,1.29,3.31
	c0.37,1.24,1.11,1.99,2.27,2.59c5.04,2.6,5.24,2.58,8.69-2.16c0.23-0.32,0.57-0.55,1.15-1.08c1.51,0.5,1.71,1.91,2.65,2.61
	c0.88,0.65,1.92,0.94,2.63-0.1C346.77,413.55,347.5,412.4,348.2,411.24z"/>
<path class="st1" d="M131.14,413.01c1.7,2.04,2.74,4.39,3.39,6.96c0.13,0.5,0.73,0.98,1.23,1.25c1.23,0.67,2.53,1.21,3.8,1.8
	c1.27,0.58,2.33,0.08,3.34-0.67c1.43-1.08,1.63-3.25,3.38-3.96c1.07,0.08,1.24,0.99,1.76,1.54c1.98,2.09,2.79,2.18,4.11-0.04
	c2.75-4.66,5.34-9.41,7.95-14.16c0.37-0.68,0.54-1.51,0.66-2.29c0.28-1.78,1.03-3.74,0.57-5.32c-0.73-2.46-1.66-4.87-2.19-7.39
	c-0.04-0.19-0.14-0.39-0.26-0.54c-0.65-0.85-1.52-1.28-2.58-1.3c-1.13-0.02-1.93,0.5-2.31,1.54c-0.88,2.4-1.09,5.19-4.73,6.75
	c-2.26-3.77-5.79-6.21-8.44-9.49c-1.18-1.47-2.53-1.28-3.28,0.34c-0.84,1.81-1.61,3.67-2.3,5.54c-0.32,0.87-0.89,1.45-1.71,1.41
	c-2.09-0.1-2.61,1.25-3.27,2.84c-1.05,2.54-0.82,5.21-0.42,7.66C130.22,407.96,129.26,410.76,131.14,413.01z"/>
<path class="st1" d="M325.71,600.92c0.1,1.75,0.27,3.47,0.93,4.98c1.24,2.87,3.28,5.43,4.16,8.54c0.05,0.17,0.25,0.33,0.43,0.41
	c2.57,1.19,4.82,2.08,6.07,2.16c0.27,0.02,0.49,0.02,0.62,0.02c6.05-9.37,12.11-19.11,18.14-29.22c-0.27-0.86-0.53-1.73-0.7-2.62
	c-0.3-1.53-1.53-2.26-3.12-2.22c-1.46,0.03-2.07,0.99-2.5,2.18c-0.4,1.13-0.71,2.31-1.24,3.37c-1.2,2.4-2.77,2.61-4.61,0.67
	c-2.33-2.47-4.61-5-6.93-7.48c-1.37-1.47-2.65-1.2-3.6,0.82c-0.76,1.62-1.46,3.28-2.07,4.97c-0.4,1.09-1.08,1.63-2.19,1.64
	c-1.41,0.01-2.06,0.79-2.58,2.03c-0.8,1.91-0.98,3.86-1.03,5.89C325.61,598.33,325.64,599.64,325.71,600.92z"/>
<path class="st1" d="M87.26,363.47c0.3,4.37,2.49,7.96,4.88,11.45c0.18,0.26,0.8,0.49,1.06,0.37c0.5-0.22,1.14-0.61,1.27-1.07
	c0.28-0.94,0.28-1.98,0.39-2.97c0.28-2.38,0.5-4.77,0.88-7.14c0.07-0.44,0.73-0.93,1.22-1.12c0.94-0.35,1.71,0.36,1.77,1.09
	c0.23,2.92,1.71,5.31,3.01,7.78c0.95,1.8,2.19,2.61,3.14,2.16c1.24-0.58,1.64-1.69,1.74-2.95c0.06-0.8,0.06-1.61,0.11-2.41
	c0.11-1.8,0.1-3.63,0.42-5.4c0.18-1.01,0.04-2.68,1.8-2.53c1.2,0.1,1.35,1.26,1.55,2.26c0.31,1.57,0.66,3.14,1.08,4.68
	c0.07,0.27,0.58,0.55,0.91,0.59c0.34,0.04,0.93-0.1,1.05-0.34c1.69-3.38,3.89-6.59,3.82-10.6c-0.04-5.02-2.29-9.43-6.57-12.21
	c-1.87-1.21-3.78-2.28-5.02-4.21c-1.13-1.77-2.56-2.42-4.59-1.37c-0.94,0.49-2.02,0.27-2.91-0.22c-2.05-1.12-3.45-0.27-4.64,1.36
	c-2.36,3.21-4.71,6.43-7.06,9.64c0.22,2.77,0.48,5.54,0.64,8.31C87.31,360.25,87.15,361.87,87.26,363.47z"/>
<path class="st1" d="M95.19,566.82c0.05-0.5,0.21-1.36,0.84-2.15c0.23-0.29,1.01-1.31,1.82-1.13c0.48,0.11,1.16,0.73,1.19,1.16
	c0.23,3.32,1.75,6.1,3.49,8.79c0.58,0.9,1.45,1.42,2.55,1.14c1.1-0.28,1.59-1.19,1.68-2.23c0.15-1.59,0.15-3.2,0.26-4.8
	c0.12-1.79,0.12-3.62,0.93-5.29c0.15-0.31,0.6-0.75,0.82-0.71c0.54,0.11,1.37,0.37,1.48,0.75c0.5,1.72,0.76,3.51,1.19,5.25
	c0.19,0.74,0.45,1.69,1.5,1.5c0.5-0.09,1.17-0.54,1.32-0.98c1.03-3.2,3.5-5.9,3.32-9.38c0-5.52-2.04-9.85-6.62-12.85
	c-0.67-0.44-1.49-0.7-2.06-1.23c-1.59-1.48-2.86-3.49-4.69-4.48c-1.81-0.98-4.11,1.12-6.31-0.21c-1.36-0.82-2.69-0.07-3.66,1.16
	c-1.03,1.3-1.84,2.26-1.87,2.31c-0.74,1.22-1.9,2.91-3.7,4.95"/>
<path class="st1" d="M445.74,548.46c0.84-0.07,1.61,0.55,1.59,1.41c-0.05,3.74,1.18,5.34,2.58,7.24c0.57,0.78,1.69,1.77,4.07,2.23
	c-2.38-6.82-4.17-12.15-5.27-15.8c-0.6-1.98-1.91-6.51-5.85-10.45c-1.11-1.11-2.25-2-3.44-2.73c-1.08,0.75-2.99,2.33-3.9,4.95
	c-0.13,0.36-0.85,1.36-0.54,3.39c0.37,2.37,0.9,4.8,0.69,7.14c-0.45,4.89,1.4,9,3.62,13.08c0.59,1.07,1.17,2.2,2.67,1.82
	c1.25-0.32,1.13-1.5,1.26-2.44c0.11-0.79,0.02-1.6,0.11-2.4c0.22-1.98,0.44-3.96,0.75-5.93
	C444.22,549.13,444.93,548.54,445.74,548.46z"/>
<path class="st1" d="M117.75,402.72c-0.14-2.8-0.2-5.62-0.64-8.38c-0.32-2,1.27-3.93,0.01-5.87c-1.19-1.84-3.98-0.42-5.12-2.6
	c-0.48-0.92-1.79-1.01-2.73-0.54c-1.88,0.95-3.63,1.96-4.33-1.22c-0.06-0.27-0.65-0.64-0.96-0.6c-2.01,0.23-2.78-0.83-3.28-2.6
	c-0.27-0.95-1.38-0.75-2.05-0.34c-1.96,1.19-3.13,3.12-4.15,5.07c-2.49,4.78-5.17,9.4-6.8,14.67c-1.03,3.32-0.94,6.18-0.21,9.31
	c0.34,1.44,1.37,1.8,2.65,1.95c2.79,0.3,5.03-1.1,7.35-2.27c1.2-0.61,2.31-0.52,3.26,0.5c0.41,0.44,0.75,0.95,1.18,1.36
	c1.38,1.29,2.2,1.09,3.06-0.81c0.41-0.9,0.68-1.86,1.37-3.76c2.6,2.72,5.44,2.44,8.23,2.32c1.64-0.07,2.57-1.18,2.92-2.61
	C117.8,405.15,117.8,403.9,117.75,402.72z"/>
<path class="st1" d="M276.32,412.95c0.52-0.16,0.97-0.4,1.34-0.73c0.81-0.73,1.17-1.76,1.26-5.69c0.06-2.64,0-6.26-0.49-10.61
	c-9.16,1.5-16.92,3.3-28.18,4.71c-1.49,2.59-2.05,4.91-2.3,6.44c-0.37,2.36,0.5,4.93,1.09,7.59c0.17,0.78,1.19,0.94,2.01,1.05
	c2.78,0.37,5.07-0.92,7.38-2.16c1.43-0.77,2.53-0.51,3.75,0.63c2.85,2.67,2.91,2.6,4.48-1.15c0.22-0.53,0.53-1.03,0.73-1.42
	c1.08-0.32,1.58,0.5,2.29,0.7C272.54,413.14,274.76,413.42,276.32,412.95z"/>
<path class="st1" d="M130.13,579.49c-0.76-0.27-1.39-0.96-1.83-2.34c-0.07-0.22-0.74-0.45-1.04-0.35c-2.02,0.62-2.13-0.86-2.64-2.13
	c-0.31-0.78-1.21-0.93-2.05-0.58c-1.17,0.48-1.94,1.41-2.57,2.44c-3.11,5.12-6.28,10.16-7.93,16.06c-0.91,3.28-2.27,6.27-0.94,9.8
	c0.92,2.43,1.74,3.35,4.27,2.82c1.54-0.32,3.13-0.86,4.45-1.69c2.2-1.38,4.03-1.67,5.61,0.77c0.11,0.16,0.26,0.3,0.42,0.43
	c0.38,0.3,0.72,0.49,1.03,0.57"/>
<path class="st1" d="M124.71,516.85c-0.46-1.31-1.28-2.55-1.49-3.89c-0.34-2.23-1.58-4.1-2.16-6.22c-0.28-1.04-0.8-1.96-1.98-1.85
	c-0.82,0.08-1.25,0.88-1.5,1.69c-0.64,2.06-1.31,4.12-1.96,6.18c-1.85-0.36-2.99-2.48-5.09-1.13c-1,0.64-1.88-0.21-2.39-1.16
	c-0.28-0.53-0.4-1.15-0.7-1.66c-1.08-1.84-2.39-2.01-3.76-0.34c-1.27,1.55-2.4,3.21-4.2,4.23c-1.74,0.98-2.21,2.81-2.78,4.49
	c-0.5,1.47-0.05,3.16-1.03,4.59c-0.22,0.33-0.01,1.41,0.3,1.57c2.41,1.28,2.38,3.39,2.3,5.67c-0.06,1.67,0.77,2.07,2.25,1.37
	c1.93-0.92,2.05-0.96,2.62,0.72c1.18,3.45,3.32,5.31,7.14,5.01c1.17-0.09,2.39,0.14,3.56,0.36c3.78,0.69,3.86,0.76,5.68-2.39
	c0.55-0.95,0.99-1.78,2.14-1.62c2.14,0.31,2.89-1.12,3.38-2.67C126.43,525.47,126.22,521.13,124.71,516.85z"/>
<path class="st1" d="M231.9,418.87c-0.76-1.83-1.92-3.5-2.86-5.26c-0.91-1.71-2.12-2.92-4.23-2.8c-1.67,0.09-2.32-1.08-3.2-2.25
	c-1.83-2.45-3.84-2.46-6.02-0.33c-0.87,0.85-1.42,1.83-1.82,3.03c-1.83,5.52-2.1,11.43-4.31,16.85c-0.46,1.13-0.44,2.43,0.06,3.54
	c1.1,2.42,1.51,4.95,1.72,7.56c0.07,0.91,0.78,1.32,1.68,1.34c2.42-1.4,5.09-0.73,7.64-0.94c1.21-0.1,2.45-0.1,3.37-1.03
	c1.17-1.19,2.34-1.09,3.77-0.4c1.3,0.63,2.37-0.05,2.83-1.36c0.66-1.89,1.17-3.78,0.66-5.88c-0.48-1.96-0.6-4.1,0.67-5.82
	C233.44,422.98,232.74,420.89,231.9,418.87z"/>
<path class="st1" d="M67.98,436.37c-0.52,6.05,2.36,10.83,5.13,15.7c0.21,0.38,1.07,0.67,1.53,0.56c0.48-0.11,1.01-0.66,1.24-1.15
	c0.69-1.5,0.49-3.13,0.52-4.73c0.04-1.79,0.19-3.59,0.56-5.34c0.14-0.64,0.91-1.33,1.88-1.16c0.67,0.12,1.1,0.58,1.1,1.19
	c0.02,3.64,2.4,6.26,3.99,9.21c0.76,1.41,2.71,1.2,3.37-0.22c0.61-1.29,0.93-2.64,0.93-4.07c0-3.01,0-6.01,0-9.02h0.27
	c0-1.2-0.01-2.41,0-3.61c0.01-1.8,0.23-3.63,0.02-5.41c-0.39-3.39-0.66-6.96-5.43-7.23c-0.87-0.05-1.71-0.98-2.54-1.53
	c-2.91-1.92-4.39-1.99-7.03-0.13c-2.18,1.54-3.76,3.46-4.44,6.19C68.19,429.2,68.29,432.79,67.98,436.37z"/>
<path class="st1" d="M242.74,452.01c-0.33,5.61,2.73,9.91,5.24,14.43c0.46,0.82,2,0.42,2.48-0.49c0.7-1.31,0.63-2.7,0.69-4.1
	c0.09-2,0.13-4,0.38-5.98c0.1-0.76,0.84-1.36,1.7-1.45c1.02-0.11,1.48,0.64,1.49,1.45c0.07,3.64,2.45,6.25,4.08,9.17
	c0.74,1.32,2.81,0.88,3.3-0.68c0.42-1.32,0.71-2.71,0.82-4.09c0.22-2.8,0.28-5.61,0.38-7.91c0-3.11-0.04-5.72,0.01-8.32
	c0.04-2.04-0.37-3.95-1.07-5.87c-0.54-1.49-1.32-2.44-2.94-2.52c-1.72-0.08-3.08-0.99-4.22-2.1c-1.95-1.9-4.01-1.61-6.05-0.42
	c-2.68,1.57-4.49,3.75-5.31,6.93C242.7,444.03,242.98,448.02,242.74,452.01z"/>
<path class="st1" d="M196.39,302.21c-3.2,5-5.66,10.25-3.57,16.38c0.8,2.36,0.96,4.69,0.7,7.12c-0.1,0.99-0.02,2.01-0.01,3.01
	c0.02,1.58,0.68,2.66,2.33,3.02c0.78,0.17,1.6,0.31,2.28,0.69c1.37,0.77,2.22,0.47,2.78-0.97c0.63-1.62,1.99-2.12,3.42-1.43
	c2.67,1.29,4.19-0.04,5.47-2.06c0.97-1.53,1.72-3.15,1.61-5.08c-0.1-1.8-0.02-3.62-0.02-5.43h-0.1c0-2.21-0.08-4.42,0.03-6.62
	c0.07-1.29-0.26-2.35-0.94-3.39c-1.44-2.18-2.83-4.39-4.28-6.56c-1.31-1.96-3.23-2.2-5.34-1.71
	C198.9,299.61,197.38,300.66,196.39,302.21z"/>
<path class="st1" d="M214.38,527.56c-0.05-7.65-0.4-8.48-4.72-14.47c-0.12-0.16-0.24-0.32-0.33-0.5c-1.05-2.14-3.39-2.79-6.28-1.78
	c-1.55,0.54-2.84,1.61-3.69,2.97c-3.27,5.17-5.71,10.54-3.3,16.86c0.71,1.87,1.14,3.78,0.59,5.85c-0.3,1.13-0.14,2.38-0.14,3.58
	c0,0.96,0.2,1.78,0.77,2.3c0.15,0.14,0.63,0.27,1.55,0.57c0.39,0.13,0.71,0.23,0.94,0.3"/>
<path class="st1" d="M390.07,531.87c-0.01-8.93-0.25-9.72-4.9-16.03c-0.12-0.16-0.23-0.33-0.33-0.5c-1.05-1.88-2.8-2.09-4.68-1.91
	c-1.91,0.19-3.46,1.21-4.53,2.67c-3.64,4.98-6.13,10.35-4.16,16.69c0.79,2.53,1.14,4.92,0.8,7.61c-0.54,4.33-0.27,4.24,4.22,6.13
	c1.46,0.61,2.42,1.38,3.19-0.68c0.63-1.68,2.07-1.85,3.48-1.24c2.67,1.15,4.15-0.23,5.39-2.27c0.95-1.55,1.64-3.17,1.53-5.07
	C389.99,535.47,390.07,533.67,390.07,531.87z"/>
<path class="st1" d="M107.59,459.39c0.8-0.06,1.62,0.14,2.4,0.01c0.76-0.13,1.66-0.34,2.17-0.84c2.61-2.58,4.28-5.76,5.6-9.16
	c1-2.56,2.65-4.93,1.11-7.92c-0.39-0.75-0.06-2.01,0.23-2.94c0.98-3.07,0.32-5.99-0.86-8.78c-1.24-2.93-2.75-5.74-3.16-8.96
	c-0.08-0.64-0.56-1.14-1.18-1.13c-0.53,0.01-1.29,0.21-1.56,0.6c-1.26,1.81-2.36,3.68-2.73,5.94c-0.9,5.56-2.83,10.82-4.75,16.1
	c-1.56,4.31-2.62,8.82-1.98,13.53c0.21,1.56-0.29,3.53,0.49,4.64C105.26,463.14,106.08,459.5,107.59,459.39z"/>
<path class="st1" d="M286.83,442.33c3.23,0.69,4.73-1.53,6.29-3.64c2.3-3.1,3.22-6.88,4.96-10.25c0.17-0.33,0.3-0.86,0.16-1.15
	c-1.48-2.94-0.52-5.88-0.12-7.87c0.08-2.99-0.42-4.96-1.25-6.77c-1.33-2.9-2.71-5.75-3.18-8.95c-0.09-0.63-0.56-1.13-1.2-1.1
	c-0.54,0.03-1.24,0.23-1.55,0.62c-2.07,2.58-2.91,5.7-3.39,8.87c-0.48,3.21-1.36,6.28-2.63,9.22c-2.73,6.37-4.11,12.9-3.36,19.87
	c0.35,3.28,0.3,3.35,3.65,1.66C285.71,442.59,286.34,442.23,286.83,442.33z"/>
<path class="st1" d="M412.39,532.95c1.41,0.43,2.74,0.62,3.93-0.85c1.76-2.17,2.44-4.51,2.58-5.29c0.14-0.74,0.27-1.87,0.15-3.27
	c-3.9-1.51-9.73-4.08-15.3-7.7c-0.5,2.17-1.11,4.32-1.58,6.5c-0.5,2.33-0.78,4.72-0.98,7.1c-0.27,3.12,0.28,3.82,3.45,5.28
	c0.88,0.41,1.72,0.92,2.39,1.28c1.15-0.33,1.26-1.18,1.56-1.89c0.55-1.3,1.56-1.88,2.85-1.46
	C411.76,532.74,412.08,532.85,412.39,532.95z"/>
<path class="st1" d="M370.29,454.78c2.03-0.55,2.1-2.11,2.24-3.74c0.36-4.36-0.29-8.8,1.16-13.08c0.16-0.47-0.02-1.4-0.37-1.65
	c-2.25-1.59-2.9-4.24-4.39-6.32c-0.7-0.98-2.52-0.74-3.01,0.39c-0.31,0.72-0.56,1.5-0.64,2.27c-0.16,1.51-0.79,2.68-2.1,3.42
	c-2.97,1.68-3.93,4.32-3.83,7.56c0.04,1.19-0.16,2.39-0.3,4.14c0.12,3.24,0.03,7.02,1.47,10.66c1.81,4.59,3.27,4.92,6.48,1.13
	c0.63-0.74,1.06-1.68,1.44-2.59C368.83,456.02,369.27,455.05,370.29,454.78z"/>
<path class="st1" d="M105.32,498.59c0.61,1.43,0.75,3.46,2.67,3.66c1.75,0.18,2.7-1.58,3.83-2.65c0.68-0.65,1.03-1.69,1.42-2.61
	c0.32-0.76,0.62-1.68,1.43-1.8c2.54-0.38,2.43-2.31,2.6-4.1c0.41-4.38-0.32-8.85,1.16-13.15c0.15-0.45-0.15-1.36-0.54-1.62
	c-1.97-1.32-2.7-3.41-3.63-5.39c-0.37-0.78-1.03-1.21-1.9-1.21c-1.15-0.01-1.98,0.6-2.1,1.72c-0.26,2.33-1.1,4.12-3.2,5.45
	c-2.17,1.37-3.06,3.6-2.95,6.24c0.06,1.4-0.16,2.81-0.3,4.91C103.83,491.15,103.77,494.98,105.32,498.59z"/>
<path class="st1" d="M285.54,490.59c0.88-0.9,1.47-1.89,1.87-3.04c0.27-0.77,0.54-1.71,1.35-1.86c2.81-0.5,2.61-2.69,2.73-4.64
	c0.14-2.2-0.01-4.43,0.17-6.63c0.18-2.18,1.26-4.5,0.76-6.46c-0.55-2.14-2.86-3.67-3.7-5.93c-0.07-0.19-0.14-0.38-0.22-0.56
	c-0.46-1.08-1.37-1.47-2.43-1.29c-0.81,0.14-1.55,0.68-1.59,1.58c-0.11,2.66-1.47,4.39-3.61,5.87c-1.71,1.18-2.56,3.01-2.55,5.21
	c0,1.81-0.19,3.61-0.33,5.89c0,3.35,0.18,7.14,1.65,10.77C281.25,493.47,282.48,493.71,285.54,490.59z"/>
<path class="st1" d="M195.61,469.06c2.32-0.63,2.23-2.51,2.4-4.29c0.39-4.15-0.53-8.41,1.07-12.47c0.18-0.46,0.01-1.39-0.33-1.65
	c-2.17-1.65-3.01-4.18-4.47-6.3c-0.29-0.41-0.96-0.56-1.31-0.75c-1.32,0.28-2.02,1.02-2.08,2.08c-0.14,2.4-1.19,4.04-3.3,5.3
	c-2.01,1.2-2.88,3.19-2.8,5.62c0.05,1.59-0.23,3.19-0.26,4.79c-0.07,4,0.03,7.98,1.53,11.8c1.59,4.04,2.64,4.24,5.76,1.07
	c0.88-0.89,1.41-1.9,1.85-3.03C194.06,470.28,194.58,469.34,195.61,469.06z"/>
<path class="st1" d="M315.64,434.03c3.05-2.23,5.96-4.65,8.85-7.08c0.57-0.48,0.94-1.34,1.12-2.09c0.34-1.4,0.86-2.63,1.87-3.69
	c0.65-0.68,0.52-1.58-0.08-2.16c-1.14-1.1-2.39-1.99-3-3.61c-0.38-1-1.58-1.16-2.58-0.52c-0.97,0.63-1.9,0.74-2.6-0.26
	c-0.56-0.81-0.81-1.94-2.01-2.01c-1.48-0.08-2,1.05-2.51,2.18c-0.24,0.55-0.57,1.06-1.02,1.9c-0.65-1.26-0.93-1.75-1.16-2.27
	c-0.27-0.61-0.76-1.04-1.37-0.84c-0.5,0.16-1.1,0.62-1.26,1.08c-0.32,0.92-0.47,1.93-0.52,2.92c-0.15,3.01-0.1,6.03-0.36,9.03
	c-0.25,2.89,0.97,5.04,2.87,6.97C313.07,434.8,314.18,435.1,315.64,434.03z"/>
<path class="st1" d="M149.41,383.42c1.87,2.05,2.65,2.3,5.11,0.59c2.27-1.59,4.2-3.68,6.54-5.15c3.05-1.92,3.17-5.44,4.69-8.13
	c1.03-1.81-3.02-2.33-3.07-4.63c0-0.16-0.18-0.4-0.34-0.47c-0.53-0.22-1.26-0.7-1.59-0.52c-1.97,1.15-3.18,0.85-4.26-1.32
	c-0.59-1.19-2.06-0.96-3,0.2c-0.37,0.46-0.5,1.11-0.87,1.57c-0.85,1.08-1.48,1.01-1.95-0.39c-0.16-0.47-0.73-1.05-1.19-1.13
	c-0.93-0.16-1.56,0.65-1.66,1.39c-0.33,2.38-0.47,4.78-0.69,7.25c0,1.54,0.09,3.15-0.02,4.75
	C146.93,379.82,147.84,381.7,149.41,383.42z"/>
<path class="st1" d="M168.94,300.34c3.04-2.24,6.25-4.36,8.88-7.04c1.59-1.61,2.24-4.16,3.26-6.31c0.37-0.78,0.13-1.56-0.43-2.2
	c-0.64-0.74-1.62-1.11-2.01-2.15c-0.69-1.85-1.92-2.45-3.76-1.31c-0.83,0.51-1.42,0.02-2.03-0.61c-2.49-2.57-2.5-2.55-4.59,0.19
	c-0.33,0.43-0.71,0.82-1.07,1.24c-0.24-0.24-0.41-0.36-0.52-0.52c-0.51-0.81-0.72-2.06-2.03-1.8c-1.14,0.23-1.45,1.29-1.5,2.31
	c-0.16,3.81-0.22,7.62-0.41,11.42c-0.13,2.66,1.2,4.59,2.93,6.34C166.62,300.87,167.86,301.14,168.94,300.34z"/>
<path class="st1" d="M345.08,514.98c0.56,0.52,1.52,0.58,2.25,0.06c4.97-3.54,10.19-6.83,12.25-13.12c0.35-1.07,0.48-2.04-0.36-2.7
	c-0.97-0.76-1.68-1.6-2.23-2.7c-0.62-1.25-1.73-1.58-2.99-0.85c-1,0.58-1.71,0.51-2.52-0.47c-2.37-2.87-2.44-2.81-4.48,0.11
	c-0.33,0.48-0.73,0.91-1.16,1.44c-0.36-0.62-0.67-1.12-0.93-1.65c-0.3-0.59-0.78-1.01-1.39-0.8c-0.5,0.17-0.95,0.62-1.3,1.04
	c-0.23,0.28-0.33,0.73-0.35,1.11c-0.16,3.99-0.29,7.97-0.43,11.96C341.32,511.35,343.18,513.21,345.08,514.98z"/>
<path class="st1" d="M181.4,504.08c-1.11-0.69-1.58-1.71-2.18-2.74c-0.4-0.69-1.22-1.41-1.97-0.97c-2.04,1.19-3.13,0.76-4.16-1.38
	c-0.63-1.31-1.99-1.17-2.93-0.01c-0.61,0.76-1.06,1.66-1.87,2.96c-0.48-0.8-0.7-1.13-0.89-1.47c-0.39-0.72-0.82-1.5-1.77-1.13
	c-0.49,0.19-1.11,0.73-1.18,1.19c-0.71,4.74-0.74,9.53-0.51,14.29c0.11,2.32,1.97,3.83,3.65,5.23c0.65,0.54,1.58,0.39,2.24-0.11
	c2.99-2.28,5.96-4.57,8.87-6.94c1.96-1.6,1.59-4.45,3.23-6.3C182.67,505.87,182.27,504.63,181.4,504.08z"/>
<path class="st1" d="M81.09,381.41c-1.76-0.15-2.89-0.62-4.11-1.77c-0.95-0.89-2.32-0.64-3.12,0.51c-0.91,1.31-1.64,1.4-2.78,0.23
	c-0.91-0.93-1.87-0.52-2.29,0.61c-0.98,2.68-0.86,5.5-0.89,8.29c-0.05,1-0.08,2-0.16,2.99c-0.27,3.08,1.17,5.35,3.34,7.32
	c1.06,0.96,2.13,1.05,3.21,0.21c2.97-2.31,6.02-4.55,8.82-7.05c1.92-1.71,2.04-4.5,1.85-6.66C84.8,384.2,83.47,381.62,81.09,381.41z
	"/>
<path class="st1" d="M133.98,261.05c0.04-0.01,0.07-0.01,0.11-0.02l-0.08-0.09C134,260.98,133.99,261.02,133.98,261.05z"/>
<path class="st1" d="M118.02,275.75c0.14,0.06,0.27,0.13,0.41,0.19c0.62-6.68,2.13-12.17,3.48-16.08c2.79,4.7,5.88,7.57,8.49,9.43
	c2.57,1.83,4.81,2.75,7,3.8c-0.12,0.49-0.22,0.98-0.16,1.48c0.03,0.24-0.1,0.6-0.29,0.75c-0.87,0.7-1.05,1.71-1.3,2.7
	c-0.07,0.26-0.25,0.49-0.41,0.72c-0.6,0.81-1.81,0.84-2.39,0.02c-0.69-0.99-1.29-2.03-1.94-3.04c-0.15-0.23-0.35-0.51-0.65-0.3
	c-0.19,0.14-0.35,0.4-0.41,0.64c-0.26,1.08-0.44,2.18-0.73,3.26c-0.26,0.97-0.83,1.15-1.63,0.58c-0.22-0.16-0.37-0.42-0.58-0.6
	c-0.35-0.28-0.73-0.24-0.89,0.18c-0.36,0.95-0.64,1.93-1,2.88c-0.08,0.22-0.34,0.44-0.57,0.53c-0.37,0.15-0.77-0.01-0.98-0.31
	c-0.25-0.37-0.39-0.83-0.57-1.25c-0.25-0.58-0.35-1.25-1.35-1.72c-0.15,1.1-0.25,2.01-0.4,2.92c-0.04,0.26-0.21,0.56-0.55,0.53
	c-0.25-0.02-0.62-0.09-0.73-0.27c-0.85-1.33-1.44-2.79-1.84-4.31c-0.04-0.17-0.09-0.34-0.12-0.52"/>
<path class="st1" d="M372.84,495.82c0.99,1.97,2.29,3.37,4.74,3.18c1.06-0.08,1.68,0.87,2.41,1.58c0.63,0.61,1.06,0.9,1.43,0.84
	c0.57-0.09,0.89-0.82,1.11-1.28c0.46-0.95,1.25-2.2,2.74-3.59c-2.53-4.25-4.7-9.22-5.9-14.85c-1.47-6.88-0.87-10.83-0.35-17.5
	c-0.35-0.46-1.23-1.48-2.19-1.34c-0.42,0.06-0.71,0.33-0.84,0.46c-2.69,2.67-5.69,5.2-6.18,9.28c-0.62,5.27-4.45,9.88-3.11,15.61
	c0.19,0.83-1.45,1.97-1.54,3.02c-0.14,1.51,1.96,1.02,2.55,2.02c0.29,0.49,0.35,1.14,0.4,1.73c0.1,1.19,0.08,2.39,0.22,3.58
	c0.03,0.28,0.46,0.64,0.77,0.72c0.33,0.08,0.9,0,1.07-0.23c0.81-1.11,1.53-2.3,2.45-3.72C372.68,495.5,372.76,495.66,372.84,495.82z
	"/>
<path class="st1" d="M449.64,579.66c-1.07,2.41-2.04,4.86-2.97,7.36c-1.26,3.38-0.62,6.22-0.08,9.3c0.24,1.38,1.42,1.76,2.73,1.86
	c2.35,0.18,4.32-0.85,6.19-1.98c2.06-1.25,3.52-1,5.16,0.84c1.63,1.84,2.49,1.56,3.51-0.47c0.66-1.32,0.52-2.2,1.24-2.63
	c0.35-0.21,0.72-0.21,0.97-0.19c-3.64-9.94-6.84-18.75-9.52-26.27c-0.15,0.14-0.28,0.29-0.4,0.46c-1.4,1.94-2.83,3.89-3.98,5.98
	C451.44,575.79,450.51,577.71,449.64,579.66z"/>
<path class="st1" d="M412.04,549.81c-0.43-0.96-1.04-1.77-2.42-1.6c-1.59,0.19-1.52,1.61-1.74,2.75c-0.26,1.4-0.6,2.86-1.95,3.55
	c-2.22,1.14-3.6,2.97-4.85,4.92c5.82,3.52,12.2,8.26,18.39,14.61c2.19,2.25,4.18,4.52,5.99,6.78c1-4.35,1.11-8.82,1.61-13.24
	c0.21-1.81-0.29-3.59-1.39-5.11c-1.19-1.64-1.75-3.46-2.34-5.4c-0.97-3.19-2.21-6.41-4.37-9.08c-0.29-0.35-1.07-0.42-1.62-0.4
	c-0.27,0.01-0.65,0.47-0.76,0.81c-0.66,2.07-0.4,4.38-1.71,6.42c-1.35-1.08-1.88-2.56-2.46-4.04
	C412.3,550.46,412.18,550.13,412.04,549.81z"/>
<path class="st1" d="M308.85,525.78c6.34,6.58,11.75,12.02,17.49,16.61"/>
<path class="st1" d="M243.28,508.98c1.54-0.67,3.23-1.34,5.09-2c2.58-0.92,11.49-3.96,23.87-5.28"/>
<path class="st1" d="M199.55,543.24c4.28-3.23,8.37-5.87,12.06-8.01c0.18-2.08,0.3-4.28,0.33-6.58c0.85-0.37,1.66-0.74,2.44-1.11"/>
<path class="st1" d="M156.09,537.37c-2.19,3.6-4.33,7.54-6.32,11.82c-1.81,3.89-3.31,7.69-4.57,11.35"/>
<path class="st1" d="M126.92,605.26c0.61-10.05,1.81-18.6,3.2-25.78"/>
<path class="st1" d="M88.66,548.38c1.81,5.31,3.46,9.96,4.91,13.96c0.54,1.49,1.08,2.98,1.62,4.47"/>
<path class="st1" d="M71.79,476.88c2.97,5.1,5.83,10.74,8.41,16.94c1.81,4.34,3.31,8.56,4.55,12.59"/>
<path class="st1" d="M111.47,326.51c0.02-0.03,0.03-0.05,0.05-0.08c0.83-1.3,2.32,0.19,3.28-0.56c0.59-0.47,1.09-1.15,1.43-1.84
	c1.76-3.62,1.66-7.53,0.7-11.2c-1.21-4.62-3.07-9.08-4.73-13.58c-0.16-0.44-0.89-0.91-1.36-0.92c-0.46-0.01-1.18,0.46-1.34,0.89
	c-0.84,2.22-1.54,4.5-2.45,7.24c-1.69-0.97-3.22-1.93-5.05-1.34c-0.51,0.16-1.39-0.2-2.07-0.88c-0.59-0.58-0.78-1.32-0.85-1.8
	c-3.25,5.09-6.48,10.44-9.65,16.06c0.49,2.06,0.53,3.44,0.47,4.36c-0.02,0.26-0.05,0.73,0.23,1.03c0.42,0.45,1.3,0.43,2.25-0.18
	c0.49-0.32,0.9-0.76,1.54-1.31c0.42,1.27,0.63,2.48,1.2,3.5c1.21,2.16,3.02,4.17,5.57,3.87c2.1-0.24,3.93,0,5.86,0.55
	c1.2,0.34,2.35,0.11,3.37-0.75C110.86,328.76,110.88,327.49,111.47,326.51z"/>
<path class="st1" d="M118.02,275.75c-2.11-1-4.27-1.92-6.75-3.69c-2.61-1.86-5.7-4.73-8.49-9.43c-1.88,5.43-4.06,13.94-3.75,24.45
	c0.05,0.01,0.1,0.02,0.14,0.02c0.33,0.03,0.5-0.26,0.55-0.53c0.15-0.9,0.25-1.82,0.4-2.92c1,0.47,1.1,1.14,1.35,1.72
	c0.18,0.42,0.32,0.88,0.57,1.25c0.21,0.31,0.61,0.47,0.98,0.31c0.23-0.09,0.49-0.31,0.57-0.53c0.36-0.95,0.63-1.93,1-2.88
	c0.16-0.42,0.54-0.46,0.89-0.18c0.22,0.17,0.36,0.43,0.58,0.6c0.79,0.58,1.37,0.39,1.63-0.58c0.29-1.07,0.47-2.18,0.73-3.26
	c0.06-0.24,0.21-0.5,0.41-0.64c0.3-0.21,0.5,0.07,0.65,0.3c0.65,1.01,1.26,2.05,1.94,3.04c0.13,0.19,0.3,0.33,0.48,0.43"/>
<path class="st1" d="M187.92,294.89c0.01-0.01,0.02-0.01,0.03-0.02c-0.81-1.46-2.17-3.55-4.36-5.58c-1.37-1.27-2.76-2.24-3.57-2.7
	c-5.58-3.16-13.9,0.59-15.07,1.13c0.5,1.2,1.43,3.04,3.15,4.8c4.37,4.49,10.09,4.68,11.23,4.69
	C183.39,297.27,186.45,295.76,187.92,294.89z"/>
<path class="st1" d="M480.66,189.34c0.89-0.21,1.78-0.4,2.68-0.58c2.41,3.33,4.53,7.38,5.81,12.23c1.85,6.99,1.34,13.26,0.32,17.91
	c-0.34,0.02-0.69,0.04-1.03,0.07c-5.48,0.43-10.33,1.7-14.49,3.33c-0.03-3.56-0.61-7.68-2.31-11.95
	c-2.4-6.03-6.28-10.44-10.37-13.64C467.29,193.46,473.8,190.95,480.66,189.34z"/>
<path class="st1" d="M418.08,267.97c0.12,2.71,0.43,5.54,1,8.46c0.92,4.69,2.31,8.58,3.98,11.96c2.61-1.71,5.82-3.35,9.67-4.48
	c4.48-1.32,8.62-1.6,12.1-1.43c-2.54-5.23-3.21-10.7-3.26-14.93c-2.7-1.73-6.12-3.32-10.26-4.15c-5.04-1.01-9.57-0.56-13.26,0.38
	C418.01,265.14,418.01,266.54,418.08,267.97z"/>
<path class="st1" d="M466.53,354.85c-0.41,1.57-0.74,2.61-0.85,2.97c-2.36,7.49-5.86,13.95-9.88,19.47
	c-1.49-3.09-3.93-6.83-7.92-9.97c-3.69-2.91-7.63-4.47-11.3-5.25c3.15-5.2,6.08-11.32,7.8-17.95c3.73-0.51,8.01-0.54,12.62,0.4
	c4.42,0.91,8.08,2.5,10.93,4.11C467.45,351.14,466.94,353.27,466.53,354.85z"/>
<path class="st1" d="M427.79,379.75c1.87,1.54,3.72,3.38,5.44,5.56c2.44,3.11,4.14,6.28,5.31,9.27c-5.71,4.31-10.87,7.22-14.02,8.98
	c-1.89,1.06-3.79,2.04-5.67,2.93c-0.02-2.91-0.51-6.23-1.94-9.67c-1.47-3.54-3.57-6.33-5.84-8.51c4.15-2.44,8.21-5.45,12.09-9.12
	c0.16-0.15,0.75-0.72,1.65-1.67C425.79,378.2,426.8,378.93,427.79,379.75z"/>
<path class="st1" d="M374.58,398.28c-0.06,0-0.12,0-0.18,0c1.41,2.33,2.69,5.04,3.63,8.15c1.08,3.59,1.45,6.89,1.5,9.61
	c5.68-0.23,11.98-0.94,18.64-2.43c0.11-3.31-0.23-7.36-1.65-11.75c-0.77-2.36-1.73-4.47-2.79-6.31
	C386.95,397.38,380.4,398.13,374.58,398.28z"/>
<path class="st2" d="M207.14,307.18c1.85,1.28,3.94,2.53,6.27,3.67c3.33,1.63,6.5,2.73,9.32,3.46c0.65-4.82,1.09-9.41,1.36-13.75
	c-1.32,0.64-2.79,1.23-4.41,1.72c-8.21,2.48-15.39,0.82-18.84-0.26C202.52,303.64,204.61,305.43,207.14,307.18z"/>
<path class="st1" d="M540.57,199.4c1.87,1.43,3.69,3.03,5.42,4.8c0.97,0.99,1.92,2.04,2.86,3.14c-1.99,5.46-5.97,12.33-13.89,16.77
	c-4.69,2.63-9.38,3.63-13.5,3.81c-3.81-2.54-9.16-5.42-15.74-7.25c2.53-2.97,5.1-6.94,6.72-11.99c2.46-7.7,1.75-14.88,0.1-20.6
	C521.71,189.45,531.76,192.66,540.57,199.4z"/>
<path class="st1" d="M456.81,226.27c0.95,1.66,1.69,3.32,2.27,4.93c-0.73,0.62-1.32,1.15-1.76,1.56c-2.13,1.99-6.7,6.26-10.35,12.81
	c-2.33-2.69-5.46-5.29-9.65-7.14c-4.52-1.99-8.87-2.47-12.64-2.25c3.71-8.48,9.04-16.47,15.64-23.42c4.69,1.62,8.94,4.29,12.36,7.91
	C454.36,222.48,455.72,224.37,456.81,226.27z"/>
<path class="st1" d="M433.81,313.83"/>
<path class="st1" d="M459.34,302.24c1.8,2.86,4.3,7.11,6.2,11.39c0.84,1.89,1.51,3.83,2.05,5.79c-3.21-0.59-7.04-0.93-11.32-0.58
	c-4.49,0.37-8.43,1.41-11.73,2.66c-1.6-5.8-4.31-10.14-7.4-14.1c1.88-2.33,4.61-4.86,8.44-6.57c4.14-1.85,8.19-2.13,11.72-1.71
	C457.69,299.68,458.42,300.78,459.34,302.24z"/>
<path class="st3" d="M179.59,284.52"/>
<path class="st4" d="M177.81,297.27c0.19,0.02,0.37,0.04,0.53,0.05c0.47-1.72,0.81-3.81,0.77-6.19c-0.03-1.91-0.31-3.62-0.68-5.1
	c-0.56-0.19-1.14-0.32-1.73-0.41c-0.73,1.7-1.41,3.94-1.51,6.62c-0.07,1.75,0.13,3.31,0.42,4.63
	C176.44,297.08,177.19,297.2,177.81,297.27z"/>
<path class="st3" d="M195.06,413.5c-4.98-12.07-11.14-25.05-18.8-38.54c-3.64-6.41-7.34-12.45-11.04-18.11"/>
<path class="st3" d="M135.05,526.77c8.09,3.22,18.52,6.27,30.87,7.37c9.61,0.86,27.13,2.43,45.75-5.64
	c16.73-7.25,16.76-14.66,36.35-21.62c2.85-1.01,13.43-4.62,27.89-5.64c3.95-0.28,7.7-0.33,11.19-0.22"/>
<path class="st3" d="M266.61,469.9c13.58,24.07,28.13,41.44,39.27,53.06c13.03,13.59,21.8,22.57,35.93,29.25
	c22.19,10.48,44.26,8.97,57.87,6.5c6.09,3.58,12.87,8.5,19.42,15.23c14.26,14.64,20.14,30.34,22.56,38.44"/>
<path class="st3" d="M103.66,620.31c0.25-3.72,0.44-9.23,0-15.88c-1.17-17.55-5.93-29.71-10.45-42.2
	c-2.98-8.25-6.83-19.3-11.18-33.05c0.63-4.72,1.43-9.58,2.41-14.58c0.32-1.62,0.65-3.22,0.99-4.79c-1.43-5.07-3.25-10.48-5.59-16.1
	c-5.09-12.23-11.28-22.29-17.2-30.27c0.98-19.62,2.37-39.91,4.25-60.82c1.55-17.23,3.35-33.99,5.36-50.25
	c4.43-10.36,9.69-21.26,15.94-32.48c9.65-17.3,19.87-32.1,29.57-44.49"/>
<path class="st3" d="M371.56,560.13c-4.78,8.64-9.81,17.43-15.11,26.34c-8.99,15.12-18.04,29.4-27.02,42.87
	c-5.71,1.58-13.1,2.91-21.71,2.73c-11.61-0.25-20.91-3.16-26.95-5.65c-0.69-6.19,0.72-12.21,4.23-16.91c4.49-6,10.86-7.78,12.85-8.3
	c6.29-1.66,12.08-0.51,16.62,1.31"/>
<path class="st3" d="M334.46,548.25c-0.53,7.2-1.88,15.52-4.75,24.44c-6.43,19.98-17.37,33.31-23.82,40.11"/>
<path class="st3" d="M373.75,416.58c4.94,17.37,5.66,31.46,5.26,41.62c-0.42,10.71-1.85,14.71,0,23.4
	c4.13,19.34,19.65,30.8,22.14,32.59c10.11,7.25,22.14,10.86,22.14,10.86c7.97,2.39,13.98,2.69,19.22,7.94
	c3.94,3.94,5.25,8.47,5.85,10.45c3.3,10.92,12.7,36.85,25.96,72.71c-0.45,1.58-0.96,3.18-1.51,4.8c-0.66,1.91-1.36,3.75-2.09,5.5
	c-5.83,2.61-13.05,4.91-21.51,5.78c-18.36,1.88-32.63-4.01-39.48-7.53c-0.91-8.08,2.21-16.35,8.77-21.45
	c5.11-3.98,11.62-5.5,17.88-4.58"/>
<path class="st3" d="M524.11,230.44c-1.04,0.46-7.29,3.35-8.95,9.77c-1.84,7.13,3.41,13.04,5.33,15.2
	c5.92,6.67,15.63,9.48,24.29,7.52c1.64-0.37,9.95-2.43,14.57-9.4c8.71-13.14-1.2-36.22-13.63-48.88
	c-20.77-21.15-52.53-17.15-60.48-15.82c-29.99,5-54.01,27.41-62.99,53.27c-1.99,5.73-6.56,18.91-3.45,34.78
	c4.71,24.03,21.74,27.16,26.01,47.32c5.99,28.28-20.75,54.34-21.94,55.47c-28.79,27.31-68.3,17.54-70.89,16.86
	c-12.73-2.26-32.67-4.69-56.97-2.75c-20.02,1.59-28.97,5.03-48.88,7.21c-13.32,1.45-32.57,2.45-56.65-0.22"/>
<path class="st3" d="M355.92,414.96c9.99,1.75,39.05,5.45,68.32-10.94c8.67-4.86,32.54-18.39,41.15-45.75
	c0.64-2.03,8.05-25.74-0.14-44.19c-3.35-7.54-8.54-14.95-8.54-14.95c-5.31-7.58-7.21-8.31-10.34-13c-6.41-9.61-5.1-21.24-4.71-24.62
	c1.75-15.56,11.87-25.02,15.37-28.29c3.21-3,14.17-12.47,31.13-13.79c21.85-1.7,36.72,11.45,39.27,13.79"/>
<path class="st3" d="M162.99,370.67"/>
<path class="st3" d="M139.66,274.39c7.67-0.53,16.52-0.57,26.26,0.39c7.38,0.73,14.14,1.93,20.18,3.33
	c2.64,4.72,5.66,7.58,8.23,9.41c6.68,4.75,12.22,3.86,22.35,8.57c2.64,1.23,5.02,2.56,7.14,3.92c-0.5,7.81-1.52,16.46-3.38,25.74
	c-1.4,7.01-3.09,13.48-4.91,19.36c-2.03,0.96-4.15,1.89-6.37,2.78c-2.81,1.14-5.54,2.12-8.18,2.98c-1.89-2.42-4.83-5.17-9.16-6.74
	c-0.45-0.16-7.93-2.76-15.46,0.63c-4.97,2.23-8.86,6.57-11.14,12.07c-3.08,1.15-10.01,3.26-18.57,1.66
	c-3.21-0.6-10.62-1.97-16.66-8.3c-8.07-8.45-7.63-19.36-7.52-21.94c0.28-6.78,2.67-11.92,4.18-14.62"/>
<path class="st3" d="M218.46,334.6c-2.44,1.2-5.43,2.15-8.88,2.23c-2.07,0.05-9.78,0.23-12.33-4.6c-1.08-2.05-1.54-5.6,0.63-7.94
	c2.21-2.39,5.67-1.94,6.06-1.88"/>
<path class="st3" d="M151.5,292.22c-0.99-4.33-3.11-10.45-8.3-15.2c-4.55-4.16-8.22-4.33-13.16-7.83c-2.61-1.86-5.7-4.73-8.49-9.43
	c-1.9,5.49-4.11,14.12-3.74,24.78c0.41,11.91,3.85,21.08,6.27,26.32"/>
<path class="st3" d="M278.26,625.33"/>
<path class="st3" d="M477.61,581.04"/>
<path class="st3" d="M211.58,528.5c-0.03,2.32-0.14,4.53-0.33,6.62c-7.03,4.08-15.54,9.98-24.03,18.35
	c-5.28,5.21-9.67,10.49-13.29,15.53c8.81,4.25,14.56,11.4,15.17,19.04c0.66,8.28-4.91,14.62-7.21,17.23
	c-6.2,7.06-14.4,10.04-21.15,11.25c-4.31-4.17-9.64-10.33-14.05-18.77c-3.41-6.53-5.45-12.84-6.66-18.43
	c1.44-8.53,4.16-19.01,9.38-30.25c2.76-5.95,5.81-11.24,8.91-15.89"/>
<path class="st3" d="M104,609.69c-4.09-1.14-8.38-1.1-12.34,0.29c-8.88,3.1-12.16,11.52-12.85,13.47c-1.31,3.7-1.59,7.64-0.95,11.51
	c6.57,3.2,16.67,6.72,29.15,6.25c7.89-0.3,14.57-2.1,19.73-4.11c-1.83-28.11,0.9-48.58,4.09-62.74c1.34-5.97,4.14-16.9,4.6-32.17
	c0.45-14.92-1.53-27.25-3.34-35.51"/>
<path class="st3" d="M222.45,313.76c-2.82-0.74-5.99-1.83-9.32-3.46c-5.52-2.71-9.66-6.02-12.57-8.83
	c3.45,1.08,10.63,2.74,18.84,0.26c1.65-0.5,3.14-1.1,4.47-1.75"/>
<path class="st3" d="M118.07,275.84c-2.24-1.08-4.52-2.01-7.16-3.88c-2.61-1.86-5.7-4.73-8.49-9.43c-1.9,5.49-4.11,14.12-3.74,24.78
	c0.16,4.69,0.79,8.95,1.65,12.72"/>
<path class="st5" d="M128.51,275.83c1.5-0.05,1.34,3.9,5.37,6.77c2.33,1.66,3.38,1.05,5.65,3.13c0.87,0.79,2.84,2.64,3.15,5.48
	c0.05,0.45,0.15,1.45-0.21,2.65c-0.92,3.01-3.86,4.23-4.35,4.43c-0.32,0.13-2.78,1.11-5.54,0.27c-5.35-1.63-6.92-8.55-7.15-9.55
	C124.01,282.69,126.55,275.89,128.51,275.83z"/>
<path class="st3" d="M201.23,309.2c-1.64-0.27-5.53-0.67-9.84,1.2c-5.74,2.5-8.24,7.31-8.88,8.64"/>
<path class="st3" d="M202.91,313.28c-0.95,0.09-5.51,0.6-8.88,4.56c-3.97,4.67-3.02,10.29-2.88,11.04"/>
<path class="st3" d="M552.71,201.2"/>
<path class="st6" d="M521.9,228.32c3.94-0.26,8.36-1.29,12.78-3.77c7.78-4.36,11.75-11.06,13.78-16.47"/>
<path class="st6" d="M505.43,221.11c2.53-2.97,5.1-6.94,6.72-11.99c2.46-7.7,1.75-14.88,0.1-20.6"/>
<path class="st6" d="M489.19,219.35c1.02-4.64,1.53-10.92-0.32-17.91c-1.29-4.86-3.41-8.91-5.82-12.24"/>
<path class="st6" d="M473.67,222.76c-0.03-3.56-0.61-7.68-2.31-11.96c-2.42-6.06-6.32-10.49-10.43-13.7"/>
<path class="st6" d="M458.81,231.68c-1.23-3.45-3.22-7.17-6.41-10.56c-3.42-3.63-7.67-6.29-12.36-7.91"/>
<path class="st6" d="M446.68,246.02c-2.33-2.69-5.46-5.29-9.65-7.14c-4.81-2.12-9.43-2.53-13.33-2.2"/>
<path class="st6" d="M441.68,268.24c-2.76-1.82-6.31-3.53-10.65-4.4c-5.04-1.01-9.57-0.56-13.26,0.38"/>
<path class="st6" d="M444.55,282.92c-3.47-0.18-7.62,0.11-12.1,1.42c-3.85,1.13-7.07,2.77-9.67,4.48"/>
<path class="st3" d="M433.53,313.27"/>
<path class="st6" d="M457.02,299.56c-3.53-0.42-7.58-0.14-11.72,1.71c-3.83,1.71-6.56,4.24-8.44,6.57"/>
<path class="st6" d="M466.89,319.79c-3.12-0.55-6.81-0.84-10.9-0.5c-4.49,0.37-8.43,1.41-11.73,2.66"/>
<path class="st6" d="M467.6,349.04c-2.85-1.6-6.5-3.18-10.89-4.08c-4.73-0.97-9.1-0.91-12.9-0.37"/>
<path class="st6" d="M455.52,377.73c-1.49-3.09-3.93-6.83-7.92-9.97c-3.69-2.91-7.63-4.47-11.3-5.25"/>
<path class="st6" d="M438.26,395.03c-1.17-2.99-2.86-6.16-5.31-9.27c-2.64-3.35-5.57-5.88-8.43-7.78"/>
<path class="st6" d="M418.57,406.95c-0.02-2.91-0.51-6.23-1.94-9.67c-1.47-3.54-3.57-6.33-5.84-8.51"/>
<path class="st6" d="M397.89,414.07c0.11-3.3-0.23-7.36-1.66-11.75c-0.77-2.36-1.74-4.47-2.79-6.32"/>
<path class="st6" d="M379.25,416.49c-0.05-2.73-0.42-6.03-1.5-9.61c-0.93-3.11-2.22-5.82-3.63-8.15"/>
<path class="st3" d="M187.92,294.6c0.01-0.01,0.02-0.01,0.03-0.02c-0.81-1.46-2.17-3.55-4.36-5.58c-1.37-1.27-2.76-2.24-3.57-2.7
	c-5.58-3.16-13.9,0.59-15.07,1.13c0.5,1.2,1.43,3.04,3.15,4.8c4.37,4.49,10.09,4.68,11.23,4.69
	C183.39,296.99,186.45,295.47,187.92,294.6z"/>
<path class="st3" d="M179.59,284.09"/>
<path class="st3" d="M175.61,296.45c-0.29-1.32-0.48-2.88-0.42-4.63c0.1-2.68,0.78-4.92,1.51-6.62"/>
<path class="st3" d="M178.43,285.61c0.37,1.48,0.65,3.19,0.68,5.1c0.04,2.35-0.3,4.42-0.76,6.13"/>
</svg>
