<?xml version="1.0" encoding="utf-8"?>
<!-- Generator: Adobe Illustrator 25.2.1, SVG Export Plug-In . SVG Version: 6.00 Build 0)  -->
<svg version="1.1" id="Layer_1" xmlns="http://www.w3.org/2000/svg" xmlns:xlink="http://www.w3.org/1999/xlink" x="0px" y="0px"
	 viewBox="0 0 113.39 113.39" style="enable-background:new 0 0 113.39 113.39;" xml:space="preserve">
<style type="text/css">
	.st0{fill:#3C4170;stroke:#3C4170;stroke-miterlimit:10;}
</style>
<g>
	<path class="st0" d="M56.27,26.59c4.38,0,8.77,0.02,13.15-0.01c4.15-0.03,7.88,1.18,11.1,3.8c2.9,2.36,4.86,5.37,5.69,9.03
		c0.3,1.34,0.49,2.73,0.5,4.1c0.04,9.02,0.04,18.04,0.01,27.06c-0.02,5.26-2.07,9.64-6.08,13.03c-3.04,2.57-6.63,3.87-10.61,3.88
		c-9.2,0.03-18.4,0.09-27.6-0.02c-6.19-0.08-10.97-2.9-14.26-8.14c-1.66-2.64-2.42-5.57-2.42-8.67c-0.01-9.07-0.07-18.14,0.02-27.21
		c0.07-6.56,3.1-11.51,8.77-14.79c2.49-1.44,5.25-2.06,8.14-2.06C47.21,26.59,51.74,26.59,56.27,26.59z M81.33,57.06
		c0-4.44,0-8.88,0-13.33c0-1.73-0.24-3.43-1.01-4.99c-2.16-4.4-5.72-6.71-10.63-6.73c-8.97-0.05-17.93-0.02-26.9-0.01
		c-1.72,0-3.4,0.27-4.94,1.03c-4.38,2.17-6.66,5.72-6.69,10.6c-0.05,8.95-0.02,17.9-0.01,26.85c0,1.7,0.26,3.36,1.02,4.89
		c2.15,4.36,5.68,6.67,10.54,6.71c9.02,0.06,18.03,0.05,27.05,0.01c4.37-0.02,7.74-1.95,10.02-5.69c1.12-1.84,1.55-3.87,1.55-6
		C81.33,65.94,81.33,61.5,81.33,57.06z"/>
	<path class="st0" d="M40.54,57.41c-0.27-8.58,6.62-15.78,15.33-16.05c8.59-0.26,15.8,6.6,16.08,15.31
		c0.27,8.58-6.62,15.78-15.33,16.05C48.02,72.98,40.81,66.12,40.54,57.41z M66.54,57.06c0.02-5.65-4.6-10.28-10.28-10.3
		c-5.66-0.02-10.3,4.59-10.32,10.27c-0.02,5.65,4.6,10.28,10.28,10.3C61.88,67.34,66.52,62.73,66.54,57.06z"/>
	<path class="st0" d="M72.64,44.67c-2.19,0.01-4-1.78-3.99-3.95c0-2.15,1.78-3.93,3.95-3.95c2.16-0.02,4,1.8,3.99,3.96
		C76.58,42.89,74.8,44.66,72.64,44.67z"/>
</g>
</svg>
