<?xml version="1.0" encoding="utf-8"?>
<!-- Generator: Adobe Illustrator 24.0.2, SVG Export Plug-In . SVG Version: 6.00 Build 0)  -->
<svg version="1.1" id="Capa_1" xmlns="http://www.w3.org/2000/svg" xmlns:xlink="http://www.w3.org/1999/xlink" x="0px" y="0px"
	 viewBox="0 0 283.46 283.46" style="enable-background:new 0 0 283.46 283.46;" xml:space="preserve">
<style type="text/css">
	.st0{fill:#0086BE;}
	.st1{fill:#F9C38B;}
	.st2{fill:#EDD7EA;}
	.st3{fill:#C9A283;}
	.st4{fill:#3D3969;}
	.st5{fill:none;stroke:#3D3969;stroke-width:3;stroke-miterlimit:10;}
	.st6{fill:#EDD7EA;stroke:#3D3969;stroke-width:3;stroke-miterlimit:10;}
</style>
<path class="st0" d="M215.56,112.62c-0.21,0.25-0.42,0.49-0.64,0.74c-4.27,4.78-9.21,7.54-13.28,9.14
	c-0.33,3.48-0.5,8.69,0.56,14.88c0.17,1,0.59,3.31,2.22,9.07c2.94,10.4,4.47,13.13,4.85,15.32c0.96,5.47-4.03,14.45-31.35,29.66
	c-1.88,2.52-3.99,4.09-4.95,4.78c-1.28,0.92-2.53,1.62-3.66,2.14c-1.57,12.7-13.64,22.57-28.29,22.57
	c-14.8,0-26.96-10.07-28.34-22.94c-0.92-0.47-1.9-1.05-2.89-1.77c-0.97-0.7-3.12-2.3-5.01-4.86
	c-27.26-15.15-32.25-24.11-31.29-29.58c0.38-2.19,1.91-4.91,4.85-15.32c1.63-5.76,2.05-8.07,2.22-9.07
	c1.05-6.19,0.88-11.4,0.56-14.88c-4.07-1.6-9.02-4.35-13.28-9.13c-8.56-9.59-8.82-21.02-8.94-26.31
	c-0.23-10.44,3.06-18.63,5.46-23.33c7.62,6.53,14.35,8.68,19.11,9.43c7.69,1.21,11.69-1.01,17.62,1.24c3.96,1.5,6.95,4.29,9.22,7.39
	c1.51-1.21,2.35-1.89,3.94-2.68c5.5-2.72,10.96-2.27,14.4-1.99c5.93,0.49,10.37,2.43,12.73,3.63c2.36-1.2,6.8-3.14,12.73-3.63
	c3.44-0.28,8.9-0.73,14.4,1.99c1.59,0.79,2.43,1.46,3.94,2.68c2.26-3.1,5.26-5.89,9.22-7.39c5.94-2.25,9.93-0.03,17.62-1.24
	c4.76-0.75,11.49-2.9,19.11-9.43c2.4,4.7,5.69,12.9,5.46,23.33C223.74,92.21,223.5,103.19,215.56,112.62z"/>
<path class="st0" d="M215.56,112.7c-0.21,0.25-0.42,0.49-0.64,0.74c-4.27,4.78-9.21,7.54-13.28,9.14c-0.33,3.48-0.5,8.69,0.56,14.88
	c0.17,1,0.59,3.31,2.22,9.07c2.94,10.4,4.47,13.13,4.85,15.32c0.96,5.47-4.03,14.45-31.35,29.66c-1.88,2.52-3.99,4.09-4.95,4.78
	c-1.28,0.92-2.53,1.62-3.66,2.14c-1.57,12.7-13.64,22.57-28.29,22.57c-14.8,0-26.96-10.07-28.34-22.94
	c-0.92-0.47-1.9-1.05-2.89-1.77c-0.97-0.7-3.12-2.3-5.01-4.86c-27.26-15.15-32.25-24.11-31.29-29.58c0.38-2.19,1.91-4.91,4.85-15.32
	c1.63-5.76,2.05-8.07,2.22-9.07c1.05-6.19,0.88-11.4,0.56-14.88c-4.07-1.6-9.02-4.35-13.28-9.13c-8.56-9.59-8.82-21.02-8.94-26.31
	c-0.23-10.44,3.06-18.63,5.46-23.33c7.62,6.53,14.35,8.68,19.11,9.43c7.69,1.21,11.69-1.01,17.62,1.24c3.96,1.5,6.95,4.29,9.22,7.39
	c1.51-1.21,2.35-1.89,3.94-2.68c5.5-2.72,10.96-2.27,14.4-1.99c5.93,0.49,10.37,2.43,12.73,3.63c2.36-1.2,6.8-3.14,12.73-3.63
	c3.44-0.28,8.9-0.73,14.4,1.99c1.59,0.79,2.43,1.46,3.94,2.68c2.26-3.1,5.26-5.89,9.22-7.39c5.94-2.25,9.93-0.03,17.62-1.24
	c4.76-0.75,11.49-2.9,19.11-9.43c2.4,4.7,5.69,12.9,5.46,23.33C223.74,92.29,223.5,103.27,215.56,112.7z"/>
<path class="st1" d="M156.36,112.09c0.27,0.99,0.52,1.97,1.53,2.4c1.35,0.58,2.72,1.16,4.14,1.5c0.49,0.12,1.28-0.35,1.72-0.78
	c0.92-0.9,1.54-2.49,2.59-2.81c1.58-0.49,1.85,2.1,3.71,2.32c1.46-1.11,2.38-2.86,3.31-4.58c1.18-2.18,2.07-4.57,3.5-6.56
	c1.68-2.34,2.01-5.01,1.99-7.56c-0.02-2.35-1.09-4.72-1.87-7.02c-0.34-0.99-1.4-1.38-2.44-1.4c-0.97-0.03-1.51,0.65-1.76,1.47
	c-0.44,1.42-0.66,2.9-1.66,4.11c-0.89,1.08-1.99,1.23-2.92,0.25c-1.94-2.03-3.86-4.09-5.79-6.15c-1.61-1.72-2.16-1.5-3.51,0.66
	c-1.27,2.03-1.09,5.38-4.68,5.53c-0.26,0.01-0.52,0.79-0.71,1.24c-0.25,0.61-0.6,1.25-0.61,1.88c-0.09,4.41-0.64,8.91,2.3,12.82
	C155.76,110.16,156.1,111.15,156.36,112.09z"/>
<path class="st1" d="M159.53,194.41c1.9-1.28,3.66-2.76,5.48-4.15c1.34-1.02,2.41-2.19,2.87-3.9c0.34-1.24,1.27-2.37,1.39-3.6
	c0.13-1.41-1.86-1.66-2.29-3.07c-0.4-1.32-1.57-1.57-2.8-0.76c-0.7,0.46-1.33,0.17-1.68-0.41c-0.51-0.85-0.82-1.88-2.11-1.65
	c-1.15,0.21-1.4,1.29-1.95,2.09c-0.18,0.26-0.42,0.48-0.64,0.72c-0.16-0.16-0.3-0.27-0.4-0.4c-0.46-0.63-0.59-1.69-1.65-1.57
	c-1,0.11-1.28,0.99-1.31,1.82c-0.15,3.3-0.23,6.61-0.33,9.92c-0.06,1.79,0.85,3.14,1.99,4.39
	C157.29,195.15,158.06,195.4,159.53,194.41z"/>
<path class="st1" d="M85.97,75.59c0-0.71-0.04-1.42-0.26-2.1c-0.71-0.06-1.46-0.15-2.24-0.27c-4.76-0.75-11.49-2.9-19.11-9.43
	c-2.4,4.7-5.69,12.9-5.46,23.33c0.06,2.71,0.16,7.02,1.38,11.87c0.14-0.22,0.18-0.48,0.19-0.74c0.01-0.99-0.11-1.98-0.12-2.97
	c-0.01-0.59-0.34-1.44,0.6-1.58c0.72-0.11,1.13,0.57,1.48,1.1c0.54,0.83,0.96,1.73,1.49,2.56c0.47,0.73,1.18,1.2,2.09,1.06
	c0.99-0.15,1.2-0.92,1.32-1.8c0.24-1.79,0.5-3.58,0.86-5.35c0.08-0.42,0.56-0.86,1.14-0.42c0.52,0.4,0.98,0.9,1.54,1.24
	c1.21,0.74,2.42,0.23,2.52-1.13c0.17-2.47,0.18-4.95,0.3-7.42c0.01-0.25,0.28-0.61,0.52-0.71c0.24-0.1,0.72-0.07,0.87,0.11
	c1.54,1.72,2.97,3.53,4.55,5.21c1.45,1.55,3.63,1.13,4.45-0.8c0.25-0.6,0.47-1.27,0.47-1.9c0-1.53,0.21-2.94,1.22-4.18
	c0.55-0.67,0.5-1.54,0.32-2.38C85.85,77.81,85.97,76.7,85.97,75.59z"/>
<path class="st1" d="M99.84,127.55c-0.69,2.26-2.28,4.24-2.42,6.64c-0.19,3.14-1.31,5.79-3.59,7.98c-0.45,0.43-0.8,1-1.13,1.54
	c-0.85,1.39,0.1,3.61-1.97,4.42c-1.58,0.62-2.86-0.61-4.31-0.83c-2.51-0.38-5.09,0.43-7.58-0.68c-0.15-0.07-0.33-0.04-0.54,0.04
	c1.66-5.86,2.09-8.2,2.26-9.2c1.05-6.19,0.88-11.39,0.56-14.88c-1.14-0.45-2.35-0.99-3.6-1.64c0.3-1.09,0.74-2.1,1.5-2.91
	c2.54-2.72,2.97-6.01,3.49-9.39c0.45-2.95,1.07-5.87,1.62-8.8c0.42-2.2,1.24-2.93,3.43-2.97c0.85-0.01,1.71,0.13,2.56,0.15
	c1.5,0.03,2.41,0.91,2.79,2.21c0.49,1.66,0.98,3.22,2.38,4.43c1.05,0.9,0.93,2.29,0.98,3.59c0.16,4.05,0.35,8.08,2.85,11.6
	c1.02,1.43,1.05,3.22,1.02,5.69c0-0.31-0.03,0.12,0.01,0.54C100.21,125.95,100.08,126.76,99.84,127.55z"/>
<path class="st1" d="M97.63,169.33c-0.02-0.15-0.05-0.3-0.09-0.45c-0.6-2.03-1.37-4.01-1.81-6.1c-0.03-0.16-0.12-0.32-0.21-0.45
	c-0.53-0.7-1.25-1.06-2.13-1.07c-0.93-0.02-1.59,0.41-1.91,1.27c-0.73,1.98-0.9,4.28-3.9,5.57c-1.86-3.11-4.78-5.12-6.96-7.83
	c-0.98-1.21-2.09-1.05-2.71,0.28c-0.7,1.49-1.33,3.02-1.9,4.57c-0.27,0.71-0.73,1.19-1.41,1.16c-0.22-0.01-0.41,0-0.59,0.02
	c1.59,4.21,6.47,9.81,17.82,17.32c1.6-2.8,3.14-5.64,4.7-8.47c0.31-0.56,0.44-1.25,0.54-1.89
	C97.27,171.97,97.79,170.55,97.63,169.33z"/>
<path class="st1" d="M119.22,133.65c3.98-2.92,7.79-6.08,11.57-9.26c0.74-0.62,1.23-1.75,1.47-2.73c0.44-1.83,1.12-3.44,2.44-4.82
	c0.85-0.89,0.69-2.07-0.1-2.83c-1.49-1.43-3.12-2.6-3.93-4.72c-0.5-1.31-2.07-1.52-3.37-0.68c-1.27,0.82-2.49,0.97-3.4-0.35
	c-0.74-1.06-1.06-2.53-2.63-2.62c-1.93-0.11-2.62,1.38-3.28,2.85c-0.32,0.72-0.74,1.39-1.34,2.49c-0.85-1.65-1.22-2.29-1.52-2.97
	c-0.36-0.8-1-1.36-1.79-1.1c-0.65,0.21-1.43,0.81-1.64,1.41c-0.42,1.21-0.62,2.53-0.68,3.82c-0.2,3.93-0.13,7.89-0.47,11.81
	c-0.32,3.78,1.27,6.59,3.76,9.12C115.86,134.65,117.31,135.05,119.22,133.65z"/>
<path class="st1" d="M135.27,96.29c0.23-2.54,0.4-5.1,0.49-7.65c0.13-3.51-0.11-6.94-0.68-10.28c-1.87-0.53-4.03-0.96-6.43-1.16
	c-3.44-0.28-8.9-0.73-14.4,1.99c-0.29,0.14-0.56,0.29-0.81,0.43c0.74,2.8,1.57,5.58,2.34,8.37c0.62,2.23,1.79,5.16,4.62,5.76
	c3.72,0.79,5.72,3.31,7.28,6.29c0.88,1.69,2.3,2.01,3.79,2.43c1.99,0.56,3.12,0.01,3.36-2.05C135,99.03,135.14,97.66,135.27,96.29z"
	/>
<path class="st1" d="M187.84,164.95c0.28,0.24,0.51,0.59,0.73,1.04c0.93,1.94,1.84,3.88,2.81,5.8c1.19,2.36,1.21,2.35,4.08,1.47
	c0.49-0.15,0.84-0.29,0.86-0.3c0.9-0.35,2.81-0.34,7.03,0.95c5.28-5.28,6.44-9.16,5.93-12.07c-0.38-2.19-1.91-4.92-4.85-15.32
	c-1.63-5.76-2.05-8.07-2.22-9.07c-0.16-0.95-0.29-1.87-0.4-2.77c-0.68,2.38-1.26,4.17-1.56,4.94c-0.06,0.16-0.2,0.48-0.5,0.61
	c-0.31,0.13-0.7,0.05-1.07-0.23c-0.39-0.29-0.67-0.75-1.07-1.02c-1.45-0.97-2.46-0.61-2.86,1.14c-0.44,1.93-0.69,3.9-1.08,5.84
	c-0.09,0.42-0.35,0.91-0.68,1.17c-0.52,0.39-0.9-0.09-1.18-0.49c-1.22-1.75-2.37-3.57-3.65-5.28c-1.07-1.43-3.24-1.28-4.24,0.19
	c-0.28,0.4-0.59,0.84-0.69,1.3c-0.39,1.78-0.63,3.58-2.14,4.89c-0.32,0.28-0.53,0.93-0.46,1.36c0.39,2.43-1.45,4.86,0.04,7.29
	c0.39,0.64-0.11,1.26-0.44,1.82c-0.65,1.12-0.29,1.87,0.85,2.3c1.62,0.61,2.96,1.37,3,3.44c0.02,1.04,0.96,1.42,1.8,0.99
	C186.74,164.49,187.36,164.55,187.84,164.95z"/>
<path class="st1" d="M223.85,87.47c0-0.12,0.01-0.23,0.01-0.35c0.23-10.44-3.06-18.63-5.46-23.33c-6.42,5.5-12.2,7.89-16.71,8.96
	c-0.85,0.2-1.65,0.35-2.41,0.47c-1.8,0.28-3.4,0.38-4.87,0.39c-0.21,1.28-0.32,2.56,0.43,3.84c0.17,0.3-0.21,0.91-0.32,1.38
	c-0.51,2-0.59,2.23,1.29,2.86c0.15,0.05,1.32,0.67,1.89,1.33c0.23,0.26,1,1.27,0.5,3.58c0.33,0,0.8,0.03,1.34,0.15
	c0.36,0.08,0.96,0.24,2,0.78c1.13,0.58,1.69,0.87,2.14,1.33c0.76,0.78,0.41,1.28,1.46,3.14c0.55,0.97,0.67,2.27,1.94,2.75
	c1.06,0.39,1.92-0.12,2.81-0.55c0.27-0.13,0.71-0.24,0.93-0.11c2.16,1.25,4.56,0.2,6.83,0.81c1.27,0.34,1.98,0.47,2.54,0.23
	c0.78-0.34,0.79-1.18,1.68-2.25c0.64-0.76,1.34-1.22,1.81-1.49C223.79,89.9,223.82,88.57,223.85,87.47z"/>
<path class="st1" d="M157.95,133.64c2.09,1.24,6.45,3.39,12.24,3.32c1.63-0.02,9.78-0.29,16-6.69c2.44-2.51,3.77-5.13,4.48-6.84
	c-1.67-0.78-13.53-6.11-21.47-1.61c-1.16,0.66-3.14,2.03-5.09,3.85c-3.11,2.89-5.05,5.86-6.21,7.94
	C157.91,133.62,157.93,133.63,157.95,133.64z"/>
<path class="st1" d="M125.44,133.64c0.02-0.01,0.03-0.02,0.05-0.03c-1.15-2.08-3.1-5.05-6.21-7.94c-1.95-1.81-3.93-3.19-5.09-3.85
	c-7.94-4.5-19.8,0.84-21.47,1.61c0.71,1.71,2.04,4.33,4.48,6.84c6.22,6.4,14.37,6.67,16,6.69
	C118.99,137.03,123.35,134.87,125.44,133.64z"/>
<path class="st2" d="M163.78,165.55c1.53-3.2,2.29-7.14,2.06-10.7c-2.58,2.68-6.63,6.05-12.36,8.34c-4.63,1.84-8.83,2.37-11.86,2.46
	c-3.02-0.1-7.23-0.62-11.86-2.46c-5.73-2.28-9.78-5.66-12.36-8.34c-0.23,3.6,0.55,7.6,2.12,10.82c2.33,4.79,6.14,7.32,8.56,8.94
	c5.32,3.54,10.55,4.56,13.48,4.9c2.94-0.33,8.23-1.34,13.59-4.9c2.42-1.6,6.23-4.14,8.56-8.94
	C163.75,165.62,163.77,165.59,163.78,165.55z"/>
<path class="st3" d="M159.18,168.53c0.5,0.2,0.98,0.49,1.42,0.85c-2,2.28-4.22,3.76-5.83,4.83c-0.67,0.45-1.34,0.85-2,1.22
	c-0.26-1.26-0.32-2.97,0.61-4.57c0.26-0.45,1.31-2.25,3.35-2.61C157.54,168.1,158.39,168.21,159.18,168.53z"/>
<path class="st4" d="M177.74,121.13c-0.51-0.67-1.05-1.23-1.58-1.71c-2.57,0.02-5.16,0.5-7.42,1.78c-0.92,0.52-2.37,1.5-3.9,2.8
	c-0.73,1.73-1.2,3.79-1,6.14c0.2,2.41,1.04,4.39,1.99,5.91c1.21,0.2,2.51,0.31,3.9,0.29c1.05-0.01,4.83-0.13,9.04-1.94
	c0.75-1.42,1.36-3.21,1.44-5.32c0.04-1.18,0.01-4.64-2.42-7.88C177.78,121.18,177.76,121.16,177.74,121.13z"/>
<path class="st3" d="M129.88,173.77c-0.01-0.93-0.21-1.95-0.77-2.92c-0.26-0.45-1.31-2.25-3.35-2.61c-1.32-0.23-2.72,0.19-3.87,1.13
	c1.99,2.28,4.22,3.76,5.83,4.83c0.67,0.45,1.34,0.85,2,1.22C129.81,174.93,129.88,174.37,129.88,173.77z"/>
<path class="st4" d="M104.79,121.07c-0.04,0.05-0.07,0.09-0.11,0.14c-2.43,3.24-2.47,6.7-2.42,7.88c0.08,2.12,0.7,3.9,1.44,5.32
	c4.22,1.81,7.99,1.93,9.04,1.94c1.39,0.02,2.69-0.09,3.9-0.29c0.95-1.52,1.79-3.5,2-5.92c0.2-2.35-0.27-4.41-1-6.14
	c-1.53-1.29-2.98-2.27-3.9-2.8c-2.27-1.28-4.85-1.77-7.42-1.78C105.8,119.89,105.28,120.43,104.79,121.07z"/>
<path class="st5" d="M202.81,116.03"/>
<path class="st5" d="M177.79,191.3c27.32-15.21,32.31-24.19,31.35-29.66c-0.38-2.19-1.91-4.92-4.85-15.32
	c-1.63-5.76-2.05-8.07-2.22-9.07c-1.06-6.2-0.88-11.41-0.56-14.89"/>
<path class="st5" d="M141.19,179.58c2.94-0.33,8.23-1.34,13.59-4.9c2.42-1.6,6.23-4.14,8.56-8.94c1.57-3.23,2.35-7.24,2.11-10.86"/>
<path class="st5" d="M141.19,191.03c1.57,1.88,4.94,5.4,10.43,7.48c2.01,0.76,7.21,2.65,13.59,1.12c1.27-0.31,4.37-1.17,7.63-3.54
	c1.61-1.16,6.44-4.77,8.01-11.17c0.57-2.33,1.62-6.63-0.93-9.68c-2.12-2.52-5.51-2.77-5.96-2.79c-2.32-0.13-4.08,0.7-4.84,1.12"/>
<path class="st5" d="M177.87,85.86c-6.23-4.41-6.65-5.47-9.5-6.88c-5.5-2.72-10.96-2.27-14.4-1.99c-5.93,0.49-10.37,2.43-12.73,3.63
	c-2.36-1.2-6.8-3.14-12.73-3.63c-3.44-0.28-8.9-0.73-14.4,1.99c-2.85,1.41-3.28,2.46-9.5,6.88"/>
<path class="st5" d="M195.67,124.16c4.01-0.89,12.4-3.4,19.11-10.92c8.56-9.59,8.82-21.02,8.94-26.31
	c0.23-10.44-3.06-18.63-5.46-23.33c-7.62,6.53-14.35,8.68-19.11,9.43c-7.69,1.21-11.69-1.01-17.62,1.24
	c-3.96,1.5-6.95,4.29-9.22,7.39"/>
<path class="st5" d="M157.49,133.5c2.09,1.24,6.45,3.39,12.24,3.32c1.63-0.02,9.78-0.29,16-6.69c2.44-2.51,3.77-5.13,4.48-6.84
	c-1.67-0.78-13.53-6.11-21.47-1.61c-1.16,0.66-3.14,2.03-5.09,3.85c-3.11,2.89-5.05,5.86-6.21,7.94
	C157.46,133.48,157.48,133.49,157.49,133.5z"/>
<path class="st6" d="M212.68,78.11c-2.19-0.6-3.36,5.26-10.3,8.07c-4.02,1.62-5.35,0.36-9.43,2.61c-1.56,0.86-5.11,2.88-6.58,6.95
	c-0.23,0.65-0.74,2.08-0.62,3.97c0.29,4.75,4.19,7.59,4.84,8.07c0.43,0.31,3.69,2.62,8.07,2.36c8.46-0.51,13.22-10.15,13.9-11.54
	C216.89,89.81,215.54,78.9,212.68,78.11z"/>
<path class="st5" d="M152.77,175.89c-0.26-1.26-0.32-2.97,0.61-4.57c0.26-0.45,1.31-2.25,3.35-2.61c1.32-0.23,2.72,0.19,3.87,1.13"
	/>
<path class="st5" d="M178.78,134.88c0.75-1.42,1.36-3.21,1.44-5.32c0.04-1.18,0.01-4.64-2.42-7.88c-0.52-0.7-1.08-1.29-1.64-1.78"/>
<path class="st5" d="M169.36,118.51"/>
<path class="st5" d="M165.83,136.53c-0.95-1.52-1.79-3.5-2-5.92c-0.2-2.35,0.27-4.41,1-6.14"/>
<path class="st5" d="M155.24,194.97"/>
<path class="st5" d="M173.21,142.28"/>
<path class="st5" d="M163.15,187.15c3,0.47,9.08,1.88,14.71,6.7c2.85,2.44,4.74,5.04,5.96,7.07"/>
<path class="st5" d="M164.09,181.75c2.52-0.85,6.9-1.94,12.29-1.3c8.59,1.01,14.21,5.77,16.2,7.63"/>
<path class="st5" d="M79.68,116.03"/>
<path class="st5" d="M104.64,191.23c-27.26-15.15-32.25-24.11-31.29-29.58c0.38-2.19,1.91-4.91,4.85-15.32
	c1.63-5.76,2.05-8.07,2.22-9.07c1.06-6.2,0.88-11.41,0.56-14.89"/>
<path class="st5" d="M141.19,179.58c-2.93-0.35-8.16-1.36-13.48-4.9c-2.42-1.61-6.23-4.14-8.56-8.94
	c-1.57-3.23-2.35-7.24-2.11-10.86"/>
<path class="st5" d="M141.19,191.03c-1.53,1.86-4.86,5.39-10.31,7.48c-1.94,0.74-7.17,2.66-13.59,1.12
	c-1.27-0.31-4.37-1.17-7.63-3.54c-1.61-1.16-6.44-4.77-8.01-11.17c-0.57-2.33-1.62-6.63,0.93-9.68c2.12-2.52,5.51-2.77,5.96-2.79
	c2.32-0.13,4.08,0.7,4.84,1.12"/>
<path class="st5" d="M141.19,191.22c-0.03,0.05-0.05,0.09-0.08,0.14"/>
<path class="st5" d="M110.18,81.66c-2.26-3.1-5.26-5.89-9.22-7.39c-5.94-2.25-9.93-0.03-17.62-1.24c-4.76-0.75-11.49-2.9-19.11-9.43
	c-2.4,4.7-5.69,12.9-5.46,23.33c0.12,5.3,0.38,16.72,8.94,26.31c6.71,7.52,15.11,10.03,19.11,10.92"/>
<path class="st5" d="M116.99,154.88c2.58,2.68,6.64,6.08,12.4,8.38c4.63,1.84,8.84,2.37,11.86,2.46c3.02-0.1,7.23-0.62,11.86-2.46
	c5.76-2.29,9.82-5.69,12.4-8.38"/>
<path class="st5" d="M124.99,133.5c0.02-0.01,0.03-0.02,0.05-0.03c-1.15-2.08-3.1-5.05-6.21-7.94c-1.95-1.81-3.93-3.19-5.09-3.85
	c-7.94-4.5-19.8,0.84-21.47,1.61c0.71,1.71,2.04,4.33,4.48,6.84c6.22,6.4,14.37,6.67,16,6.69
	C118.54,136.89,122.9,134.73,124.99,133.5z"/>
<path class="st6" d="M69.81,78.11c2.19-0.6,3.36,5.26,10.3,8.07c4.02,1.62,5.35,0.36,9.43,2.61c1.56,0.86,5.11,2.88,6.58,6.95
	c0.23,0.65,0.74,2.08,0.62,3.97c-0.29,4.75-4.19,7.59-4.84,8.07c-0.43,0.31-3.69,2.62-8.07,2.36c-8.46-0.51-13.22-10.15-13.9-11.54
	C65.6,89.81,66.94,78.9,69.81,78.11z"/>
<path class="st5" d="M129.71,175.89c0.26-1.26,0.32-2.97-0.61-4.57c-0.26-0.45-1.31-2.25-3.35-2.61c-1.32-0.23-2.72,0.19-3.87,1.13"
	/>
<path class="st5" d="M103.71,134.88c-0.75-1.42-1.36-3.21-1.44-5.32c-0.04-1.18-0.01-4.64,2.42-7.88c0.52-0.7,1.08-1.29,1.64-1.78"
	/>
<path class="st5" d="M113.12,118.51"/>
<path class="st5" d="M116.65,136.53c0.95-1.52,1.79-3.5,2-5.92c0.2-2.35-0.27-4.41-1-6.14"/>
<path class="st5" d="M127.24,194.97"/>
<path class="st5" d="M109.28,142.28"/>
<path class="st5" d="M119.33,187.15c-3,0.47-9.08,1.88-14.71,6.7c-2.85,2.44-4.74,5.04-5.96,7.07"/>
<path class="st5" d="M118.4,181.75c-2.52-0.85-6.9-1.94-12.29-1.3c-8.59,1.01-14.21,5.77-16.2,7.63"/>
<path class="st5" d="M141.19,179.58c0,3.82,0,7.63,0,11.45"/>
<path class="st5" d="M141.19,201.42"/>
<path class="st5" d="M149.03,188.43"/>
<path class="st5" d="M169.21,198c-1.46,12.8-13.58,22.8-28.33,22.8c-14.8,0-26.96-10.07-28.34-22.94"/>
<path class="st5" d="M165.5,154.88c-0.01-1.72-0.26-6.4-3.51-10.98c-2.78-3.92-6.31-5.73-7.92-6.43"/>
<path class="st5" d="M117.02,155.51c0.01-1.72,0.26-6.4,3.51-10.98c2.78-3.92,6.31-5.73,7.92-6.43"/>
</svg>
