<?xml version="1.0" encoding="utf-8"?>
<!-- Generator: Adobe Illustrator 25.2.1, SVG Export Plug-In . SVG Version: 6.00 Build 0)  -->
<svg version="1.1" id="Layer_1" xmlns="http://www.w3.org/2000/svg" xmlns:xlink="http://www.w3.org/1999/xlink" x="0px" y="0px"
	 viewBox="0 0 141.73 141.73" style="enable-background:new 0 0 141.73 141.73;" xml:space="preserve">
<style type="text/css">
	.st0{fill:#C39D82;stroke:#E7CEE4;stroke-miterlimit:10;}
</style>
<g>
	<path class="st0" d="M30.05,86.75c2.58-1.4,6.06-3.75,8.8-7.66c3.41-4.86,4.18-9.38,4.43-12.26C44.48,52.92,56.16,42,70.4,42
		c13.88,0,25.33,10.38,27.01,23.8c0.38,3,1.02,7.46,4.35,12.53c2.62,4,5.91,6.53,8.33,8.08c9.31,4.73,15.69,14.4,15.69,25.57
		c0,15.83-12.83,28.66-28.66,28.66c-4.34,0-8.53-1.29-8.53-1.29c-2.71-0.84-4.86-1.94-6.41-2.87c-2.39-1.02-6.44-2.38-11.59-2.39
		c-6.24-0.01-10.98,1.96-13.43,3.19c-1.22,0.66-2.89,1.43-4.95,2.07c0,0-4.16,1.29-8.54,1.29c-15.83,0-28.66-12.83-28.66-28.66
		c0-3.98,0.84-7.11,1.29-8.52c3.2-10.05,11.25-15.23,13.96-16.81"/>
	<ellipse class="st0" cx="123.21" cy="59.38" rx="17.1" ry="19.24"/>
	<ellipse class="st0" cx="93.05" cy="21.4" rx="18.94" ry="20.31"/>
	<ellipse class="st0" cx="46.61" cy="21.4" rx="18.94" ry="20.31"/>
	<ellipse class="st0" cx="18.52" cy="59.38" rx="17.1" ry="19.24"/>
</g>
</svg>
