<?xml version="1.0" encoding="utf-8"?>
<!-- Generator: Adobe Illustrator 24.0.2, SVG Export Plug-In . SVG Version: 6.00 Build 0)  -->
<svg version="1.1" id="Capa_1" xmlns="http://www.w3.org/2000/svg" xmlns:xlink="http://www.w3.org/1999/xlink" x="0px" y="0px"
	 viewBox="0 0 283.46 283.46" style="enable-background:new 0 0 283.46 283.46;" xml:space="preserve">
<style type="text/css">
	.st0{fill:#0086BE;}
	.st1{fill:#F9C38B;}
	.st2{fill:#EDD7EA;}
	.st3{fill:#C9A283;stroke:#3D3969;stroke-width:3;stroke-miterlimit:10;}
	.st4{fill:#3D3969;}
	.st5{fill:#C9A283;}
	.st6{fill:#EDEDED;}
	.st7{fill:none;stroke:#3D3969;stroke-width:3;stroke-miterlimit:10;}
	.st8{fill:#EDD7EA;stroke:#3D3969;stroke-width:3;stroke-miterlimit:10;}
</style>
<path class="st0" d="M217.68,50.38c5.47-1.29,12.48-4.2,20.25-10.86c2.91,5.7,6.9,15.63,6.62,28.29
	c-0.14,6.42-0.46,20.27-10.83,31.9c-5.17,5.8-11.17,9.14-16.1,11.08c-0.39,4.23-0.6,10.53,0.68,18.04
	c0.21,1.21,0.72,4.01,2.69,10.99c3.57,12.61,5.42,15.92,5.88,18.57c1.16,6.64-4.89,17.52-38,35.95c-2.28,3.05-4.84,4.95-6.01,5.8
	c0,0-0.16,0.11-0.37,0.27c-0.75,2.78-1.93,7.03-1.89,12.3c0.05,5.65,1.36,8.45-0.3,13.69c-2.18,6.91-7.31,11.07-8.73,12.19
	c0,0-3.83,3-9.33,4.81c-7.52,2.48-16.2,1.68-17.62,1.54c-1.38,0.14-10.21,0.95-17.75-1.54c-5.51-1.82-9.33-4.81-9.33-4.81
	c-1.42-1.12-6.54-5.28-8.73-12.19c-1.48-4.69,0.02-6-0.3-13.69c-0.22-5.26-1.14-9.52-1.89-12.3c-0.21-0.15-0.37-0.27-0.37-0.27
	c-1.18-0.85-3.78-2.78-6.08-5.89c-33.04-18.37-39.09-29.23-37.93-35.86c0.46-2.66,2.31-5.95,5.88-18.57
	c1.98-6.98,2.49-9.78,2.69-10.99c1.28-7.5,1.07-13.81,0.68-18.03c-4.93-1.94-10.93-5.28-16.1-11.08
	C45.04,88.07,44.72,74.22,44.58,67.8c-0.28-12.65,3.71-22.59,6.62-28.29c9.24,7.92,17.4,10.53,23.17,11.43
	c9.33,1.47,14.17-1.22,21.37,1.5c4.8,1.82,8.43,5.21,11.17,8.96c1.83-1.47,2.85-2.29,4.78-3.24c6.66-3.29,13.28-2.75,17.45-2.41
	c7.19,0.59,12.57,2.94,15.43,4.4c2.86-1.46,8.24-3.81,15.43-4.4c4.17-0.34,10.79-0.88,17.45,2.41c1.93,0.95,2.94,1.77,4.78,3.24
	c2.74-3.75,6.37-7.14,11.17-8.96c7.2-2.73,12.04-0.04,21.37-1.5C215.68,50.81,216.65,50.62,217.68,50.38z"/>
<path class="st1" d="M37.01,130.13"/>
<path class="st1" d="M162.74,98.17c0.33,1.2,0.63,2.39,1.86,2.91c1.64,0.7,3.3,1.41,5.02,1.82c0.6,0.14,1.55-0.43,2.08-0.94
	c1.12-1.09,1.87-3.02,3.13-3.41c1.91-0.59,2.25,2.54,4.5,2.82c1.77-1.35,2.88-3.47,4.01-5.56c1.43-2.65,2.51-5.54,4.24-7.95
	c2.04-2.83,2.44-6.08,2.41-9.16c-0.02-2.85-1.32-5.72-2.27-8.51c-0.41-1.2-1.69-1.67-2.96-1.7c-1.18-0.03-1.83,0.79-2.14,1.78
	c-0.53,1.72-0.81,3.52-2.01,4.98c-1.08,1.31-2.41,1.49-3.54,0.3c-2.35-2.47-4.68-4.96-7.01-7.45c-1.95-2.09-2.62-1.81-4.26,0.8
	c-1.55,2.46-1.32,6.52-5.68,6.7c-0.31,0.01-0.63,0.95-0.86,1.5c-0.3,0.74-0.73,1.51-0.74,2.28c-0.11,5.35-0.78,10.8,2.78,15.54
	C162.01,95.83,162.42,97.03,162.74,98.17z"/>
<path class="st1" d="M166.58,197.97c2.3-1.55,4.44-3.34,6.65-5.03c1.62-1.24,2.92-2.65,3.48-4.72c0.41-1.5,1.55-2.87,1.69-4.37
	c0.16-1.71-2.26-2.01-2.78-3.72c-0.48-1.6-1.91-1.9-3.4-0.92c-0.85,0.56-1.61,0.21-2.04-0.5c-0.62-1.03-0.99-2.28-2.56-2
	c-1.39,0.25-1.7,1.56-2.36,2.53c-0.22,0.32-0.51,0.58-0.77,0.87c-0.2-0.2-0.36-0.32-0.48-0.49c-0.56-0.76-0.71-2.04-2-1.9
	c-1.21,0.14-1.55,1.2-1.59,2.21c-0.18,4.01-0.27,8.02-0.4,12.02c-0.07,2.17,1.03,3.81,2.42,5.33
	C163.86,198.86,164.8,199.16,166.58,197.97z"/>
<path class="st1" d="M77.41,53.93c0-0.86-0.05-1.72-0.32-2.54c-0.86-0.07-1.77-0.18-2.71-0.33c-5.77-0.91-13.93-3.52-23.17-11.43
	c-2.91,5.7-6.9,15.63-6.62,28.29c0.07,3.28,0.19,8.51,1.68,14.39c0.17-0.27,0.22-0.59,0.23-0.9c0.02-1.2-0.13-2.4-0.14-3.61
	c-0.01-0.72-0.42-1.75,0.72-1.92c0.87-0.13,1.38,0.69,1.8,1.33c0.65,1,1.16,2.1,1.81,3.1c0.57,0.88,1.43,1.45,2.53,1.29
	c1.21-0.18,1.46-1.12,1.6-2.18c0.29-2.17,0.61-4.34,1.04-6.48c0.1-0.51,0.68-1.04,1.38-0.51c0.64,0.48,1.19,1.09,1.87,1.5
	c1.47,0.9,2.94,0.28,3.05-1.36c0.21-2.99,0.22-6,0.36-8.99c0.02-0.31,0.34-0.74,0.63-0.86c0.29-0.13,0.87-0.08,1.05,0.13
	c1.86,2.08,3.6,4.27,5.51,6.31c1.76,1.88,4.41,1.37,5.39-0.97c0.3-0.72,0.57-1.54,0.57-2.3c-0.01-1.86,0.25-3.56,1.48-5.07
	c0.66-0.81,0.61-1.87,0.39-2.88C77.26,56.62,77.41,55.27,77.41,53.93z"/>
<path class="st1" d="M94.22,116.91c-0.84,2.73-2.76,5.14-2.93,8.05c-0.23,3.81-1.59,7.02-4.35,9.67c-0.55,0.53-0.97,1.21-1.37,1.87
	c-1.02,1.69,0.12,4.38-2.39,5.36c-1.91,0.75-3.46-0.74-5.23-1.01c-3.04-0.45-6.17,0.52-9.19-0.83c-0.18-0.08-0.4-0.05-0.66,0.05
	c2.01-7.1,2.53-9.94,2.74-11.16c1.28-7.5,1.07-13.81,0.68-18.03c-1.38-0.55-2.85-1.2-4.36-1.99c0.36-1.32,0.9-2.55,1.82-3.53
	c3.08-3.29,3.6-7.28,4.23-11.38c0.54-3.57,1.29-7.11,1.96-10.67c0.5-2.67,1.51-3.56,4.16-3.59c1.04-0.02,2.07,0.15,3.11,0.18
	c1.82,0.04,2.93,1.11,3.39,2.68c0.59,2.01,1.19,3.9,2.88,5.36c1.27,1.09,1.12,2.78,1.18,4.35c0.19,4.91,0.42,9.8,3.45,14.06
	c1.24,1.74,1.28,3.91,1.24,6.9c0-0.38-0.04,0.14,0.01,0.66C94.67,114.97,94.52,115.96,94.22,116.91z"/>
<path class="st1" d="M91.54,167.56c-0.02-0.18-0.06-0.37-0.11-0.54c-0.73-2.46-1.66-4.87-2.19-7.39c-0.04-0.19-0.14-0.39-0.26-0.54
	c-0.65-0.85-1.52-1.28-2.58-1.3c-1.13-0.02-1.93,0.5-2.31,1.54c-0.88,2.4-1.09,5.19-4.73,6.75c-2.26-3.77-5.79-6.21-8.44-9.49
	c-1.18-1.47-2.53-1.28-3.28,0.34c-0.84,1.81-1.61,3.67-2.3,5.54c-0.32,0.87-0.89,1.45-1.71,1.41c-0.26-0.01-0.5,0-0.71,0.03
	c1.92,5.1,7.84,11.89,21.6,21c1.93-3.4,3.81-6.83,5.69-10.26c0.37-0.68,0.54-1.51,0.66-2.29C91.11,170.76,91.73,169.03,91.54,167.56
	z"/>
<path class="st1" d="M117.71,124.31c4.83-3.54,9.45-7.37,14.03-11.23c0.9-0.76,1.49-2.12,1.78-3.31c0.53-2.22,1.36-4.17,2.96-5.84
	c1.03-1.08,0.83-2.51-0.12-3.43c-1.8-1.74-3.78-3.15-4.76-5.72c-0.6-1.58-2.51-1.84-4.09-0.82c-1.54,0.99-3.01,1.17-4.12-0.42
	c-0.89-1.28-1.29-3.07-3.19-3.18c-2.34-0.13-3.18,1.67-3.97,3.46c-0.39,0.87-0.9,1.68-1.62,3.02c-1.03-1.99-1.48-2.78-1.84-3.6
	c-0.43-0.97-1.21-1.65-2.17-1.34c-0.79,0.26-1.74,0.98-1.99,1.71c-0.51,1.46-0.75,3.07-0.83,4.63c-0.24,4.77-0.16,9.56-0.57,14.32
	c-0.39,4.58,1.54,7.99,4.55,11.05C113.64,125.52,115.4,126,117.71,124.31z"/>
<path class="st1" d="M137.17,79.01c0.28-3.08,0.49-6.18,0.6-9.27c0.15-4.26-0.14-8.41-0.83-12.47c-2.27-0.64-4.89-1.17-7.79-1.4
	c-4.17-0.34-10.79-0.88-17.45,2.41c-0.36,0.18-0.68,0.35-0.98,0.52c0.9,3.4,1.91,6.77,2.84,10.15c0.75,2.71,2.17,6.25,5.6,6.98
	c4.51,0.95,6.93,4.01,8.82,7.63c1.07,2.05,2.79,2.43,4.6,2.94c2.42,0.68,3.78,0.01,4.08-2.49
	C136.84,82.34,137.02,80.68,137.17,79.01z"/>
<path class="st1" d="M200.9,162.25c0.34,0.29,0.62,0.72,0.88,1.26c1.13,2.35,2.23,4.7,3.4,7.03c1.44,2.86,1.47,2.85,4.94,1.78
	c0.59-0.18,1.02-0.35,1.05-0.37c1.09-0.43,3.41-0.41,8.52,1.15c6.4-6.4,7.81-11.11,7.19-14.63c-0.47-2.65-2.32-5.96-5.88-18.57
	c-1.97-6.98-2.48-9.78-2.69-10.99c-0.2-1.15-0.36-2.27-0.49-3.35c-0.82,2.88-1.52,5.05-1.89,5.99c-0.08,0.19-0.24,0.58-0.6,0.73
	c-0.37,0.16-0.84,0.06-1.3-0.28c-0.48-0.36-0.81-0.91-1.3-1.24c-1.75-1.18-2.98-0.74-3.46,1.38c-0.53,2.34-0.84,4.73-1.31,7.08
	c-0.1,0.52-0.42,1.11-0.83,1.41c-0.63,0.48-1.09-0.11-1.43-0.59c-1.48-2.13-2.87-4.32-4.43-6.39c-1.3-1.73-3.92-1.56-5.14,0.23
	c-0.34,0.49-0.71,1.02-0.84,1.58c-0.47,2.15-0.76,4.34-2.6,5.92c-0.39,0.33-0.65,1.13-0.56,1.64c0.47,2.95-1.76,5.89,0.05,8.84
	c0.47,0.77-0.13,1.52-0.53,2.21c-0.79,1.36-0.35,2.27,1.04,2.79c1.96,0.74,3.59,1.66,3.64,4.17c0.03,1.26,1.17,1.72,2.18,1.2
	C199.57,161.69,200.32,161.76,200.9,162.25z"/>
<path class="st1" d="M244.55,68.33c0-0.14,0.01-0.28,0.01-0.42c0.28-12.65-3.71-22.59-6.62-28.29c-7.78,6.66-14.79,9.57-20.25,10.86
	c-1.03,0.24-2,0.43-2.92,0.57c-2.18,0.34-4.12,0.46-5.9,0.47c-0.25,1.55-0.38,3.1,0.52,4.66c0.21,0.36-0.25,1.11-0.39,1.68
	c-0.62,2.42-0.72,2.7,1.57,3.47c0.18,0.06,1.59,0.81,2.29,1.61c0.27,0.32,1.22,1.54,0.6,4.33c0.4,0,0.96,0.04,1.62,0.18
	c0.44,0.09,1.16,0.29,2.43,0.94c1.37,0.71,2.05,1.06,2.6,1.62c0.93,0.94,0.5,1.56,1.77,3.81c0.66,1.18,0.81,2.76,2.35,3.33
	c1.28,0.48,2.32-0.15,3.41-0.67c0.33-0.16,0.86-0.29,1.13-0.13c2.62,1.51,5.53,0.24,8.28,0.98c1.53,0.41,2.41,0.57,3.08,0.28
	c0.95-0.41,0.96-1.43,2.04-2.73c0.77-0.92,1.62-1.48,2.19-1.8C244.47,71.27,244.52,69.66,244.55,68.33z"/>
<path class="st1" d="M164.65,124.29c2.54,1.5,7.82,4.11,14.84,4.03c1.97-0.02,11.85-0.35,19.39-8.11c2.96-3.05,4.57-6.22,5.44-8.29
	c-2.03-0.94-16.4-7.41-26.03-1.96c-1.41,0.8-3.8,2.47-6.17,4.66c-3.77,3.5-6.12,7.11-7.52,9.63
	C164.61,124.26,164.63,124.27,164.65,124.29z"/>
<path class="st1" d="M125.25,124.29c0.02-0.01,0.04-0.02,0.06-0.03c-1.4-2.52-3.75-6.13-7.52-9.63c-2.37-2.2-4.76-3.87-6.17-4.66
	c-9.63-5.45-24,1.02-26.03,1.96c0.86,2.07,2.47,5.25,5.44,8.29c7.54,7.75,17.42,8.08,19.39,8.11
	C117.43,128.4,122.71,125.78,125.25,124.29z"/>
<path class="st2" d="M171.73,162.97c-0.02,0.05-0.04,0.09-0.07,0.14c-2.83,5.82-7.45,8.89-10.38,10.83
	c-6.5,4.32-12.91,5.54-16.48,5.94c-3.55-0.42-9.89-1.65-16.34-5.94c-2.94-1.95-7.55-5.02-10.38-10.83c-1.9-3.9-2.85-8.75-2.56-13.11
	c3.12,3.24,8.03,7.34,14.98,10.1c5.61,2.24,10.71,2.87,14.38,2.99c3.66-0.12,8.76-0.75,14.37-2.99c6.94-2.77,11.85-6.86,14.98-10.1
	C174.51,154.31,173.59,159.09,171.73,162.97z"/>
<path class="st3" d="M166.15,166.58c0.6,0.24,1.19,0.59,1.73,1.03c-2.42,2.77-5.12,4.56-7.07,5.85c-0.81,0.54-1.62,1.03-2.43,1.48
	c-0.32-1.53-0.38-3.6,0.74-5.54c0.31-0.54,1.59-2.72,4.06-3.16C164.17,166.06,165.19,166.19,166.15,166.58z"/>
<path class="st4" d="M180.31,109.75c0.08-0.34,0.16-0.68,0.25-1c0.91-0.33,1.84-0.58,2.79-0.76c1.32,2.97,2.56,6.95,2.74,11.74
	c0.11,2.89-0.19,5.48-0.66,7.7c-2.04,0.46-3.76,0.62-4.88,0.69c-0.75-2.89-1.3-6.37-1.24-10.3
	C179.37,114.83,179.76,112.13,180.31,109.75z"/>
<path class="st3" d="M130.63,172.94c-0.01-1.13-0.25-2.36-0.94-3.54c-0.31-0.54-1.59-2.72-4.06-3.16c-1.6-0.28-3.3,0.24-4.7,1.37
	c2.42,2.76,5.11,4.55,7.07,5.85c0.81,0.54,1.62,1.03,2.43,1.48C130.55,174.34,130.64,173.66,130.63,172.94z"/>
<path class="st4" d="M105.11,108.82c-1.18,2.87-2.22,6.56-2.39,10.91c-0.11,3.02,0.22,5.72,0.72,7.99c1.88,0.47,3.52,0.67,4.72,0.77
	c0.8-2.96,1.4-6.57,1.33-10.68c-0.05-3.3-0.53-6.26-1.17-8.81c-0.97-0.32-1.97-0.55-2.99-0.71
	C105.26,108.47,105.18,108.64,105.11,108.82z"/>
<path class="st5" d="M148.84,198.91c0.38,1.19,3,9.41,3,9.41l1.81-6.52c0,0,0.02-0.06,0.04-0.13c0.79,0.41,1.63,0.8,2.52,1.16
	c0,0.01,1.35,6.55,1.35,6.55s1.85-5.39,1.86-5.42c1.88,0.56,4.4,1.1,7.33,1.15c0.61,1.63,1.18,3.4,1.67,5.29
	c0.31,1.21,0.56,2.38,0.77,3.52c-0.99,1.24-2.19,2.57-3.61,3.9c-0.72-4.03-1.99-7.26-3.07-9.49c-0.54,3.08-1.27,6.43-2.26,9.97
	c-0.43,1.53-0.88,3.01-1.35,4.43c-0.2,0.12-0.4,0.23-0.61,0.34c-0.38,0.21-0.77,0.41-1.15,0.6c-1.46-3.34-3.18-7.29-3.18-7.29
	l-2.26,6.77l-3.27-5.87c0,0-0.24,0.89-0.55,2.05c0,0-1.73,6.59-2.04,7.77c-0.58,0.08-1.13,0.13-1.62,0.18
	c-0.5-0.04-1.04-0.1-1.63-0.18c-0.31-1.18-2.04-7.77-2.04-7.77c-0.31-1.17-0.55-2.05-0.55-2.05l-3.27,5.87l-2.26-6.77
	c0,0-1.72,3.95-3.17,7.29c-0.38-0.19-0.77-0.39-1.15-0.6c-0.21-0.11-0.41-0.23-0.61-0.34c-0.46-1.42-0.91-2.9-1.34-4.43
	c-0.99-3.54-1.72-6.89-2.26-9.97c-1.08,2.23-2.35,5.46-3.07,9.49c-1.42-1.33-2.62-2.66-3.61-3.9c0.21-1.14,0.46-2.31,0.77-3.52
	c0.48-1.89,1.05-3.65,1.67-5.28c2.95-0.06,5.47-0.61,7.35-1.16c0.06,0.19,1.85,5.42,1.85,5.42l1.35-6.54
	c0.89-0.37,1.73-0.76,2.52-1.18c0.02,0.07,0.04,0.15,0.04,0.15l1.81,6.52l3.05-9.55c0,0,0.07-0.2,0.15-0.45
	c2-1.63,3.44-3.22,4.34-4.33c0.94,1.14,2.43,2.76,4.51,4.42c0.07,0.2,0.12,0.36,0.12,0.36S148.81,198.81,148.84,198.91z"/>
<g>
	<path class="st6" d="M169.96,219.57c0.07,1.3,0.08,2.51,0.05,3.59c1.74-1.99,5.18-6.47,6.54-13.2c0.56-2.79,0.66-5.37,0.49-7.66
		c-1.65,0.68-2.99,1.04-3.77,1.23c-2.32,0.56-4.52,0.74-6.52,0.7c0.61,1.63,1.18,3.39,1.67,5.28
		C169.39,213.24,169.81,216.65,169.96,219.57z"/>
	<path class="st6" d="M166.76,204.23"/>
	<path class="st6" d="M163.24,209.01c0.89,2.08,1.8,4.75,2.36,7.92c-1.84,1.71-4.04,3.42-6.68,4.92c0.47-1.42,0.92-2.9,1.35-4.44
		c0.99-3.54,1.72-6.89,2.26-9.97C162.76,207.92,163,208.44,163.24,209.01z"/>
	<path class="st6" d="M146.43,223.95l2.03-7.56l3.27,5.87l2.26-6.77c0,0,1.72,3.95,3.18,7.29c-4.32,2.15-8.35,3.05-11.31,3.44
		c0.31-1.18,2.04-7.77,2.04-7.77"/>
	<path class="st6" d="M157.13,206.36c-0.39-1.91-0.91-4.41-0.91-4.41c0.59,0.22,1.7,0.67,3.21,1.12c-0.01,0.03-1.86,5.42-1.86,5.42
		S157.37,207.54,157.13,206.36z"/>
	<path class="st6" d="M152.18,206.22c0.53-1.89,1.47-5.3,1.47-5.3s0.02-0.06,0.04-0.14c-1.95-1-3.62-2.13-5.02-3.25
		c0.06,0.18,0.12,0.36,0.12,0.36l3.05,9.55C151.84,207.44,151.98,206.94,152.18,206.22z"/>
	<path class="st6" d="M118.52,219.54c0.15-2.91,0.57-6.32,1.52-10.03c0.48-1.89,1.05-3.65,1.66-5.28c-2,0.04-4.19-0.15-6.52-0.7
		c-0.78-0.19-2.12-0.55-3.77-1.23c-0.16,2.29-0.07,4.88,0.49,7.66c1.36,6.73,4.8,11.21,6.54,13.2
		C118.44,222.07,118.45,220.85,118.52,219.54z"/>
	<path class="st6" d="M127.25,213.69c-0.52-2.18-0.95-4.27-1.3-6.25c-1.08,2.24-2.35,5.46-3.07,9.49c1.84,1.71,4.04,3.42,6.68,4.92
		c-0.47-1.42-0.92-2.9-1.35-4.44C127.86,216.14,127.54,214.9,127.25,213.69z"/>
	<path class="st6" d="M142.05,223.95l-2.03-7.56l-3.27,5.87l-2.26-6.77c0,0-1.72,3.95-3.18,7.29c4.32,2.15,8.35,3.05,11.3,3.44
		c-0.31-1.18-2.04-7.77-2.04-7.77"/>
	<path class="st6" d="M131.35,206.35c0.39-1.91,0.91-4.41,0.91-4.42c-0.2,0.08-0.39,0.16-0.6,0.24c-0.62,0.24-1.5,0.57-2.62,0.9
		c0.06,0.18,1.86,5.42,1.86,5.42S131.11,207.53,131.35,206.35z"/>
	<path class="st6" d="M138.11,202.8c0.78-2.43,1.57-4.92,1.57-4.92s0.07-0.22,0.14-0.45c-1.4,1.14-3.07,2.3-5.04,3.33
		c0.02,0.07,0.04,0.15,0.04,0.15l1.81,6.52C136.63,207.44,137.37,205.14,138.11,202.8z"/>
</g>
<path class="st4" d="M150.2,95.41c0.29-0.42,0.56-0.71,0.7-0.86c2.41-2.55,5.85-2.3,6.64-2.21c1.55,0.17,2.78,0.74,3.66,1.29
	c0-0.04,0-7.7,0-7.7v-9.2c-8.25,1.94-16.88,3.98-22.14,5.22c0,0,0,6.65,0,6.65s0,8.72,0,17.45c-0.89,2.33-2.6,4.2-4.81,5.09
	c-2.47,1-6.16,1.03-8.47-1.3c-1.95-1.96-1.91-4.58-1.91-4.81c0.07-2.43,1.5-4,1.91-4.43c2.41-2.55,5.85-2.3,6.64-2.21
	c1.5,0.16,2.71,0.7,3.59,1.25c0-0.1,0-16.46,0-16.46s0-9.9,0-9.9c4.27-1.01,16.73-3.95,27.86-6.57c0,0,0,16.17,0,16.17
	s0,17.83,0,17.83c-0.95,2-2.53,3.58-4.5,4.38c-2.47,1-6.16,1.03-8.47-1.3c-1.95-1.96-1.91-4.58-1.91-4.81
	C149.04,97.4,149.66,96.18,150.2,95.41z"/>
<path class="st7" d="M219.04,102.94"/>
<path class="st7" d="M188.71,194.19c33.12-18.44,39.17-29.32,38-35.95c-0.47-2.65-2.32-5.96-5.88-18.57
	c-1.97-6.98-2.48-9.78-2.69-10.99c-1.28-7.51-1.07-13.83-0.68-18.05"/>
<path class="st7" d="M144.34,179.97c3.57-0.4,9.97-1.62,16.48-5.94c2.93-1.95,7.55-5.02,10.38-10.83c3.76-7.72,3.78-19.1-2.03-23.25
	c-1.71-1.22-4.82-2.45-8.12-1.58c-3.06,0.8-4.82,3-5.42,3.84"/>
<path class="st7" d="M170.33,140.97c1.29-2.03,1.63-4.42,0.86-6.43c-1.62-4.24-7.35-4.5-7.67-4.51c-2.89-0.09-5.03,1.22-5.87,1.81"
	/>
<path class="st7" d="M144.34,193.85c1.9,2.28,5.99,6.55,12.64,9.07c2.44,0.93,8.74,3.21,16.48,1.35c1.54-0.37,5.3-1.42,9.25-4.29
	c1.95-1.41,7.8-5.78,9.7-13.54c0.69-2.82,1.97-8.04-1.13-11.74c-2.56-3.06-6.68-3.35-7.22-3.39c-2.81-0.16-4.95,0.85-5.87,1.35"/>
<path class="st7" d="M191.26,174.7c2.02-2.91,2.47-6.33,1.15-8.79c-2.14-3.98-8.09-3.87-9.7-3.84c-2.58,0.05-4.63,0.79-5.87,1.35"/>
<path class="st7" d="M182.34,200.25c-0.75,2.78-1.94,7.03-1.89,12.3c0.05,5.65,1.36,8.45-0.3,13.69
	c-2.18,6.91-7.31,11.07-8.73,12.19c0,0-3.83,3-9.33,4.81c-7.52,2.48-16.2,1.68-17.62,1.54c-1.38,0.14-10.21,0.95-17.75-1.54
	c-5.51-1.82-9.33-4.81-9.33-4.81c-1.42-1.12-6.54-5.28-8.73-12.19c-1.48-4.69,0.02-6-0.3-13.69c-0.22-5.27-1.14-9.52-1.89-12.3"/>
<path class="st7" d="M188.81,66.36c-7.55-5.35-8.06-6.63-11.52-8.33c-6.66-3.29-13.28-2.75-17.45-2.41
	c-7.19,0.59-12.57,2.94-15.43,4.4c-2.86-1.45-8.24-3.81-15.43-4.4c-4.17-0.34-10.79-0.88-17.45,2.41
	c-3.46,1.71-3.97,2.99-11.52,8.33"/>
<path class="st7" d="M230.15,102.94c1.16-1.02,2.3-2.15,3.41-3.39c10.38-11.63,10.69-25.48,10.83-31.9
	c0.28-12.65-3.71-22.59-6.62-28.29c-9.24,7.92-17.4,10.53-23.17,11.43c-9.33,1.47-14.17-1.22-21.37,1.5
	c-4.8,1.82-8.43,5.21-11.17,8.96"/>
<path class="st7" d="M210.39,112.8c4.2-0.93,12.37-3.33,19.76-9.85"/>
<path class="st7" d="M164.11,124.11c2.54,1.5,7.82,4.11,14.84,4.03c1.97-0.02,11.85-0.35,19.39-8.11c2.96-3.05,4.57-6.22,5.44-8.29
	c-2.03-0.94-16.4-7.41-26.03-1.96c-1.41,0.8-3.8,2.47-6.17,4.66c-3.77,3.5-6.12,7.11-7.52,9.63
	C164.07,124.09,164.09,124.1,164.11,124.11z"/>
<path class="st8" d="M231,56.98c-2.66-0.73-4.07,6.38-12.49,9.78c-4.87,1.97-6.48,0.43-11.43,3.16c-1.89,1.04-6.2,3.49-7.97,8.43
	c-0.28,0.79-0.89,2.53-0.75,4.81c0.35,5.76,5.08,9.21,5.87,9.78c0.52,0.38,4.48,3.18,9.78,2.86c10.25-0.61,16.02-12.31,16.85-13.99
	C236.1,71.15,234.47,57.93,231,56.98z"/>
<path class="st7" d="M158.38,175.51c-0.31-1.53-0.38-3.6,0.74-5.54c0.31-0.54,1.59-2.72,4.06-3.16c1.6-0.28,3.3,0.24,4.7,1.37"/>
<path class="st7" d="M178.49,105.95"/>
<path class="st7" d="M177.22,203.02c0.16,2.29,0.07,4.89-0.49,7.69c-1.36,6.73-4.8,11.21-6.54,13.2c0.07-3.52-0.2-8.26-1.58-13.65
	c-0.48-1.89-1.05-3.65-1.67-5.28"/>
<path class="st7" d="M165.81,217.93c-0.71-4.15-2.02-7.46-3.11-9.75c-0.54,3.08-1.27,6.43-2.26,9.97c-0.43,1.53-0.88,3.01-1.35,4.44
	"/>
<path class="st7" d="M157.33,223.53c-1.46-3.34-3.18-7.29-3.18-7.29l-2.26,6.77l-3.27-5.87l-2.03,7.56"/>
<path class="st7" d="M161.38,198.63"/>
<polyline class="st7" points="156.38,202.69 157.74,209.24 159.6,203.81 "/>
<polyline class="st7" points="148.96,198.63 152.01,208.19 153.82,201.67 "/>
<path class="st7" d="M185.37,127.3c0.5-2.28,0.84-4.98,0.72-8c-0.17-4.62-1.34-8.5-2.61-11.43"/>
<path class="st7" d="M183.16,134.76"/>
<path class="st7" d="M180.49,108.57c-0.65,2.55-1.12,5.51-1.17,8.81c-0.07,4.07,0.52,7.64,1.31,10.59"/>
<path class="st7" d="M170.97,189.15c3.64,0.58,11.01,2.28,17.83,8.12c3.45,2.96,5.75,6.12,7.22,8.58"/>
<path class="st7" d="M172.1,182.61c3.06-1.03,8.37-2.35,14.9-1.58c10.42,1.23,17.22,6.99,19.63,9.25"/>
<path class="st7" d="M145.39,229.4"/>
<line class="st7" x1="148.07" y1="219.19" x2="145.98" y2="227.14"/>
<path class="st7" d="M69.77,102.94"/>
<path class="st7" d="M100.03,194.09c-33.04-18.37-39.09-29.23-37.93-35.86c0.46-2.66,2.31-5.95,5.88-18.57
	c1.98-6.98,2.49-9.78,2.69-10.99c1.28-7.51,1.07-13.83,0.68-18.05"/>
<path class="st7" d="M144.34,179.97c-3.55-0.42-9.89-1.65-16.34-5.94c-2.94-1.95-7.55-5.02-10.38-10.83
	c-3.76-7.72-3.78-19.1,2.03-23.25c1.71-1.22,4.82-2.45,8.12-1.58c3.06,0.8,4.82,3,5.42,3.84"/>
<path class="st7" d="M118.48,140.97c-1.29-2.03-1.63-4.42-0.86-6.43c1.62-4.24,7.35-4.5,7.67-4.51c2.89-0.09,5.03,1.22,5.87,1.81"/>
<path class="st7" d="M144.34,193.85c-1.85,2.26-5.89,6.53-12.5,9.07c-2.35,0.9-8.69,3.23-16.48,1.35c-1.54-0.37-5.3-1.42-9.25-4.29
	c-1.95-1.41-7.8-5.78-9.7-13.54c-0.69-2.82-1.97-8.04,1.13-11.74c2.56-3.06,6.68-3.35,7.22-3.39c2.81-0.16,4.95,0.85,5.87,1.35"/>
<path class="st7" d="M144.34,194.09c-0.03,0.06-0.07,0.11-0.1,0.17"/>
<path class="st7" d="M97.55,174.7c-2.02-2.91-2.47-6.33-1.15-8.79c2.14-3.98,8.09-3.87,9.7-3.84c2.58,0.05,4.63,0.79,5.87,1.35"/>
<path class="st7" d="M106.75,61.27c-2.74-3.75-6.37-7.14-11.17-8.96c-7.2-2.73-12.04-0.04-21.37-1.5
	c-5.77-0.91-13.93-3.52-23.17-11.43c-2.91,5.7-6.9,15.63-6.62,28.29c0.14,6.42,0.46,20.27,10.83,31.9
	c8.14,9.12,18.31,12.16,23.17,13.24"/>
<path class="st7" d="M115,150.04c3.12,3.25,8.05,7.37,15.03,10.15c5.61,2.24,10.71,2.87,14.38,2.99c3.66-0.12,8.76-0.75,14.37-2.99
	c6.98-2.78,11.9-6.9,15.03-10.15"/>
<path class="st7" d="M124.71,124.11c0.02-0.01,0.04-0.02,0.06-0.03c-1.4-2.52-3.75-6.13-7.52-9.63c-2.37-2.2-4.76-3.87-6.17-4.66
	c-9.63-5.45-24,1.02-26.03,1.96c0.86,2.07,2.47,5.25,5.44,8.29c7.54,7.75,17.42,8.08,19.39,8.11
	C116.89,128.23,122.17,125.61,124.71,124.11z"/>
<path class="st8" d="M57.81,56.98c2.66-0.73,4.07,6.38,12.49,9.78c4.87,1.97,6.48,0.43,11.43,3.16c1.89,1.04,6.2,3.49,7.97,8.43
	c0.28,0.79,0.89,2.53,0.75,4.81c-0.35,5.76-5.08,9.21-5.87,9.78c-0.52,0.38-4.48,3.18-9.78,2.86C64.56,95.18,58.79,83.49,57.96,81.8
	C52.71,71.15,54.34,57.93,57.81,56.98z"/>
<path class="st7" d="M130.43,175.51c0.31-1.53,0.38-3.6-0.74-5.54c-0.31-0.54-1.59-2.72-4.06-3.16c-1.6-0.28-3.3,0.24-4.7,1.37"/>
<path class="st7" d="M110.32,105.95"/>
<path class="st7" d="M121.88,204.98c-0.61,1.63-1.18,3.39-1.67,5.28c-1.38,5.39-1.65,10.13-1.58,13.65
	c-1.74-1.99-5.18-6.47-6.54-13.2c-0.57-2.79-0.66-5.39-0.49-7.69"/>
<path class="st7" d="M119.41,213.73c2.37,2.97,5.9,6.47,10.92,9.2c5.61,3.05,10.85,3.93,14.08,4.21c3.22-0.28,8.46-1.16,14.07-4.21
	c5.03-2.73,8.56-6.23,10.92-9.2"/>
<path class="st7" d="M129.73,222.59c-0.47-1.42-0.92-2.9-1.35-4.44c-0.99-3.54-1.72-6.89-2.26-9.97c-1.1,2.28-2.41,5.6-3.11,9.75"/>
<path class="st7" d="M131.48,223.53c1.46-3.34,3.18-7.29,3.18-7.29l2.26,6.77l3.27-5.87l2.03,7.56"/>
<path class="st7" d="M127.44,198.63"/>
<polyline class="st7" points="132.43,202.69 131.08,209.24 129.21,203.81 "/>
<polyline class="st7" points="139.85,198.63 136.8,208.19 134.99,201.67 "/>
<path class="st7" d="M103.45,127.3c-0.5-2.28-0.84-4.98-0.72-8c0.17-4.62,1.34-8.5,2.61-11.43"/>
<path class="st7" d="M105.66,134.76"/>
<path class="st7" d="M108.32,108.57c0.65,2.55,1.12,5.51,1.17,8.81c0.07,4.07-0.52,7.64-1.31,10.59"/>
<path class="st7" d="M117.84,189.15c-3.64,0.58-11.01,2.28-17.83,8.12c-3.45,2.96-5.75,6.12-7.22,8.58"/>
<path class="st7" d="M116.72,182.61c-3.06-1.03-8.37-2.35-14.9-1.58c-10.42,1.23-17.22,6.99-19.63,9.25"/>
<path class="st7" d="M143.42,229.4"/>
<line class="st7" x1="140.74" y1="219.19" x2="142.83" y2="227.14"/>
<path class="st7" d="M144.34,179.97c0,4.63,0,9.25,0,13.88"/>
<path class="st7" d="M144.34,206.46"/>
<path class="st7" d="M105.07,242.79"/>
<path class="st7" d="M144.34,216.91"/>
</svg>
