<?xml version="1.0" encoding="utf-8"?>
<!-- Generator: Adobe Illustrator 25.2.1, SVG Export Plug-In . SVG Version: 6.00 Build 0)  -->
<svg version="1.1" id="Layer_1" xmlns="http://www.w3.org/2000/svg" xmlns:xlink="http://www.w3.org/1999/xlink" x="0px" y="0px"
	 viewBox="0 0 113.39 113.39" style="enable-background:new 0 0 113.39 113.39;" xml:space="preserve">
<style type="text/css">
	.st0{fill:#3C4170;stroke:#3C4170;stroke-miterlimit:10;}
	.st1{fill:#3C4170;stroke:#3C4170;stroke-width:2;stroke-linecap:round;stroke-linejoin:round;stroke-miterlimit:10;}
</style>
<g>
	<path class="st0" d="M23.1,90.39c0.38-1.45,0.73-2.8,1.09-4.14c1.04-3.86,2.07-7.71,3.14-11.56c0.26-0.95,0.14-1.8-0.3-2.65
		c-1.99-3.82-3.17-7.89-3.62-12.16c-0.41-3.87-0.12-7.71,0.85-11.48c1.7-6.56,5.02-12.16,10.11-16.67
		c4.89-4.34,10.61-6.93,17.05-8.02c5.27-0.9,10.41-0.47,15.47,1.16c6.12,1.97,11.22,5.48,15.31,10.41
		c4.44,5.36,6.97,11.54,7.51,18.5c0.69,8.96-1.78,16.97-7.41,23.94c-5.06,6.26-11.63,10.13-19.54,11.61
		c-7.21,1.35-14.15,0.42-20.77-2.77c-0.98-0.47-1.93-0.58-2.98-0.3C33.77,87.64,28.52,88.99,23.1,90.39z M30.6,82.86
		c0.38-0.05,0.55-0.05,0.7-0.09c2.73-0.71,5.48-1.37,8.19-2.15c1.21-0.35,2.25-0.27,3.35,0.35c4.87,2.74,10.09,4.02,15.7,3.55
		c7.74-0.65,14.22-3.84,19.27-9.74c7.8-9.11,9.11-21.98,2.94-32.18c-6.07-10.05-15.15-14.76-26.92-13.8
		c-7.29,0.59-13.38,3.82-18.24,9.29c-4.09,4.61-6.41,10.04-6.96,16.16c-0.51,5.64,0.68,10.96,3.49,15.9c1.03,1.8,1.14,3.62,0.49,5.6
		C31.87,78.02,31.3,80.37,30.6,82.86z"/>
	<path class="st0" d="M65.77,72.55c-4.1-0.25-7.65-1.57-10.97-3.58c-6.01-3.65-10.52-8.73-13.82-14.89
		c-2.23-4.18-1.52-8.66,1.68-11.81c1.07-1.06,3.16-1.41,4.47-0.7c0.3,0.16,0.58,0.49,0.71,0.8c0.95,2.2,1.88,4.41,2.77,6.63
		c0.37,0.92-0.19,1.66-0.67,2.36c-0.39,0.56-0.86,1.07-1.3,1.59c-0.62,0.71-0.71,1.44-0.21,2.27c2.63,4.42,6.3,7.64,11.03,9.64
		c1.29,0.55,1.75,0.41,2.66-0.68c0.69-0.84,1.34-1.7,2.04-2.53c0.75-0.89,1.1-0.96,2.13-0.46c1.98,0.95,3.95,1.92,5.94,2.85
		c0.77,0.36,1.07,0.88,1.05,1.75c-0.08,3.32-2.47,5.93-6.1,6.58C66.67,72.45,66.13,72.5,65.77,72.55z"/>
	<path class="st1" d="M23.75,89.84c-0.23,0.17-0.46,0.34-0.69,0.51"/>
</g>
</svg>
